<?xml version="1.0" encoding="utf-8"?>
<!-- Generator: Adobe Illustrator 25.0.0, SVG Export Plug-In . SVG Version: 6.00 Build 0)  -->
<svg version="1.1" id="Livello_1" xmlns="http://www.w3.org/2000/svg" xmlns:xlink="http://www.w3.org/1999/xlink" x="0px" y="0px"
	 viewBox="0 0 512 512" style="enable-background:new 0 0 512 512;" xml:space="preserve">
<g>
	<g>
		<polygon style="fill:#C19ECA;" points="39.33,130.91 256,256.63 256,5.82 		"/>
		<path style="fill:#EEE3F1;" d="M256,260.12c-0.6,0-1.21-0.16-1.75-0.47L37.58,133.92c-1.08-0.62-1.74-1.78-1.74-3.02
			c0-1.25,0.67-2.39,1.74-3.02L254.26,2.79c1.08-0.62,2.41-0.62,3.49,0c1.08,0.62,1.74,1.77,1.74,3.02v250.82
			c0,1.25-0.67,2.4-1.75,3.02C257.2,259.97,256.6,260.12,256,260.12z M46.3,130.92l206.21,119.66V11.86L46.3,130.92z"/>
	</g>
	<g>
		<polygon style="fill:#C19ECA;" points="256,256.63 472.67,130.91 256,5.82 		"/>
		<path style="fill:#EEE3F1;" d="M256,260.12c-0.6,0-1.2-0.16-1.74-0.47c-1.08-0.62-1.75-1.77-1.75-3.02V5.82
			c0-1.25,0.66-2.4,1.74-3.02c1.08-0.62,2.41-0.62,3.49,0l216.67,125.09c1.08,0.62,1.74,1.77,1.74,3.02c0,1.24-0.66,2.4-1.74,3.02
			L257.75,259.65C257.21,259.96,256.6,260.12,256,260.12z M259.49,11.86v238.72L465.7,130.92L259.49,11.86z"/>
	</g>
	<g>
		<polygon style="fill:#FCD56D;" points="39.33,130.91 39.33,381.09 256,256.63 		"/>
		<path style="fill:#FFF4CD;" d="M39.33,384.58c-0.6,0-1.21-0.16-1.75-0.47c-1.08-0.62-1.74-1.77-1.74-3.02V130.91
			c0-1.25,0.67-2.4,1.75-3.02c1.08-0.62,2.41-0.62,3.49,0.01l216.67,125.73c1.08,0.63,1.74,1.78,1.74,3.02
			c0,1.25-0.67,2.4-1.75,3.02L41.07,384.12C40.53,384.43,39.93,384.58,39.33,384.58z M42.82,136.96v238.1l206.2-118.45L42.82,136.96
			z"/>
	</g>
	<g>
		<polygon style="fill:#61BEB3;" points="256,256.63 472.67,381.09 472.67,130.91 		"/>
		<path style="fill:#D6ECEB;" d="M472.67,384.58c-0.6,0-1.2-0.15-1.74-0.46L254.26,259.66c-1.08-0.62-1.75-1.77-1.75-3.02
			c0-1.25,0.66-2.4,1.74-3.02l216.67-125.73c1.08-0.63,2.41-0.63,3.49-0.01c1.08,0.62,1.75,1.77,1.75,3.02v250.19
			c0,1.24-0.66,2.4-1.74,3.02C473.87,384.42,473.27,384.58,472.67,384.58z M262.98,256.62l206.2,118.45v-238.1L262.98,256.62z"/>
	</g>
	<g>
		<polygon style="fill:#FCD56D;" points="39.33,381.09 256,506.19 256,256.63 		"/>
		<path style="fill:#FFF4CD;" d="M256,509.67c-0.6,0-1.2-0.16-1.74-0.47L37.59,384.11c-1.08-0.62-1.75-1.78-1.74-3.02
			c0-1.25,0.67-2.4,1.75-3.02l216.67-124.46c1.08-0.62,2.41-0.62,3.48,0.01c1.08,0.62,1.74,1.77,1.74,3.02v249.55
			c0,1.25-0.67,2.4-1.74,3.02C257.21,509.52,256.6,509.67,256,509.67z M46.32,381.1l206.19,119.04V262.66L46.32,381.1z"/>
	</g>
	<g>
		<polygon style="fill:#61BEB3;" points="256,506.19 256,256.63 472.67,381.09 		"/>
		<path style="fill:#D6ECEB;" d="M256,509.67c-0.6,0-1.2-0.16-1.74-0.47c-1.08-0.62-1.74-1.77-1.74-3.02V256.63
			c0-1.24,0.66-2.4,1.74-3.02c1.08-0.62,2.4-0.63,3.48-0.01L474.4,378.07c1.08,0.62,1.75,1.77,1.75,3.02c0,1.25-0.66,2.4-1.74,3.02
			L257.74,509.21C257.21,509.52,256.6,509.67,256,509.67z M259.49,262.66v237.48L465.68,381.1L259.49,262.66z"/>
	</g>
	<g>
		<polygon style="fill:#E83D70;" points="185.25,297.23 185.25,215.53 109.2,171.26 109.2,340.76 256,425.51 256,338.07 		"/>
		<path style="fill:#FFF4CD;" d="M256,429c-0.6,0-1.2-0.16-1.74-0.47l-146.8-84.75c-1.08-0.62-1.74-1.77-1.74-3.02V171.26
			c0-1.25,0.67-2.4,1.75-3.02c1.08-0.62,2.42-0.62,3.49,0.01l76.05,44.28c1.07,0.62,1.73,1.77,1.73,3.01v79.68l69,39.84
			c1.08,0.62,1.74,1.77,1.74,3.02v87.44c0,1.25-0.67,2.4-1.74,3.02C257.21,428.85,256.6,429,256,429z M112.69,338.75l139.82,80.72
			v-79.39l-69-39.84c-1.08-0.62-1.74-1.77-1.74-3.02v-79.69l-69.07-40.22V338.75z"/>
	</g>
	<g>
		<polygon style="fill:#107478;" points="326.75,215.95 326.75,297.23 256,338.07 256,425.51 402.8,340.76 402.8,171.26 		"/>
		<path style="fill:#D6ECEB;" d="M256,429c-0.6,0-1.2-0.16-1.74-0.47c-1.08-0.62-1.74-1.77-1.74-3.02v-87.44
			c0-1.25,0.66-2.4,1.74-3.02l69-39.84v-79.26c0-1.24,0.66-2.38,1.72-3.01l76.05-44.7c1.08-0.63,2.41-0.64,3.5-0.02
			c1.09,0.62,1.76,1.78,1.76,3.03v169.51c0,1.25-0.67,2.4-1.74,3.02l-146.8,84.75C257.21,428.85,256.6,429,256,429z M259.49,340.09
			v79.39l139.82-80.72V177.35l-69.07,40.6v79.28c0,1.25-0.67,2.4-1.74,3.02L259.49,340.09z M326.75,297.23h0.01H326.75z"/>
	</g>
</g>
</svg>
