<?xml version="1.0" encoding="utf-8"?>
<!-- Generator: Adobe Illustrator 25.2.1, SVG Export Plug-In . SVG Version: 6.00 Build 0)  -->
<svg version="1.1" id="Livello_1" xmlns="http://www.w3.org/2000/svg" xmlns:xlink="http://www.w3.org/1999/xlink" x="0px" y="0px"
	 viewBox="0 0 2048 2048" style="enable-background:new 0 0 2048 2048;" xml:space="preserve">
<path d="M0,0v2048h2048V0H0z M1037.67,1002.74V67.34l808.04,466.52l-249.4,144.72c-1.39,0.3-2.75,0.82-4.02,1.57l-102.79,60.41
	L1037.67,1002.74z M1287.55,889.35v272.75l-236.21-135.69L1287.55,889.35z M1273.67,1185.66l-236,136.26v-271.82L1273.67,1185.66z
	 M1598.56,1372.29l247.04,141.91l-807.93,466.46v-284.54L1598.56,1372.29z M1612.88,1348.98V700.58l246.44-143v932.98
	L1612.88,1348.98z M449.44,1372.29l560.89,323.83v284.54L202.4,1514.2L449.44,1372.29z M188.68,1490.55V557.57l246.44,143v648.41
	L188.68,1490.55z M774.33,1185.66l236-135.57v271.82L774.33,1185.66z M760.45,1162.11V889.35l236.21,137.07L760.45,1162.11z
	 M755.33,854.77c-0.52-0.42-1.08-0.81-1.67-1.15l-297.99-173.5c-1.25-0.73-2.59-1.24-3.97-1.54l-249.4-144.72l808.04-466.52v935.4
	L755.33,854.77z"/>
</svg>
