<?xml version="1.0" encoding="utf-8"?>
<!-- Generator: Adobe Illustrator 25.2.1, SVG Export Plug-In . SVG Version: 6.00 Build 0)  -->
<svg version="1.1" id="Layer_1" xmlns="http://www.w3.org/2000/svg" xmlns:xlink="http://www.w3.org/1999/xlink" x="0px" y="0px"
	 viewBox="0 0 4000 4000" style="enable-background:new 0 0 4000 4000;" xml:space="preserve">
<g>
	<g>
		<g>
			<g>
				<g>
					<defs>
						<path id="SVGID_1_" d="M229.39,3716.03c413.99-179.67,546.7,106.9,809.23-7.03c262.53-113.94,195.06-418.22,195.06-418.22
							s-176.16-257.11-438.69-143.18C532.44,3261.54,643.38,3536.36,229.39,3716.03z"/>
					</defs>
					<clipPath id="SVGID_2_">
						<use xlink:href="#SVGID_1_"  style="overflow:visible;"/>
					</clipPath>
					<polygon style="clip-path:url(#SVGID_2_);fill:#EC1C24;" points="229.39,3716.03 286.23,3822.93 229.39,3822.93 					"/>
					<polygon style="clip-path:url(#SVGID_2_);fill:#EC1C24;" points="229.39,3702.73 293.3,3822.93 286.23,3822.93 229.39,3716.03 
											"/>
					<polygon style="clip-path:url(#SVGID_2_);fill:#EC1C24;" points="229.39,3689.43 300.37,3822.93 293.3,3822.93 229.39,3702.73 
											"/>
					<polygon style="clip-path:url(#SVGID_2_);fill:#EC1C24;" points="229.39,3676.13 307.45,3822.93 300.37,3822.93 
						229.39,3689.43 					"/>
					<polygon style="clip-path:url(#SVGID_2_);fill:#EC1C24;" points="229.39,3662.83 314.52,3822.93 307.45,3822.93 
						229.39,3676.13 					"/>
					<polygon style="clip-path:url(#SVGID_2_);fill:#EC1C24;" points="229.39,3649.54 321.59,3822.93 314.52,3822.93 
						229.39,3662.83 					"/>
					<polygon style="clip-path:url(#SVGID_2_);fill:#EC1C24;" points="229.39,3636.24 328.66,3822.93 321.59,3822.93 
						229.39,3649.54 					"/>
					<polygon style="clip-path:url(#SVGID_2_);fill:#EC1D24;" points="229.39,3622.94 335.73,3822.93 328.66,3822.93 
						229.39,3636.24 					"/>
					<polygon style="clip-path:url(#SVGID_2_);fill:#EC1D24;" points="229.39,3609.64 342.8,3822.93 335.73,3822.93 229.39,3622.94 
											"/>
					<polygon style="clip-path:url(#SVGID_2_);fill:#EC1D24;" points="229.39,3596.34 349.87,3822.93 342.8,3822.93 229.39,3609.64 
											"/>
					<polygon style="clip-path:url(#SVGID_2_);fill:#EC1D24;" points="229.39,3583.05 356.94,3822.93 349.87,3822.93 
						229.39,3596.34 					"/>
					<polygon style="clip-path:url(#SVGID_2_);fill:#EC1D24;" points="229.39,3569.75 364.02,3822.93 356.94,3822.93 
						229.39,3583.05 					"/>
					<polygon style="clip-path:url(#SVGID_2_);fill:#EC1E24;" points="229.39,3556.45 371.09,3822.93 364.02,3822.93 
						229.39,3569.75 					"/>
					<polygon style="clip-path:url(#SVGID_2_);fill:#EC1E24;" points="229.39,3543.15 378.16,3822.93 371.09,3822.93 
						229.39,3556.45 					"/>
					<polygon style="clip-path:url(#SVGID_2_);fill:#EC1E24;" points="229.39,3529.85 385.23,3822.93 378.16,3822.93 
						229.39,3543.15 					"/>
					<polygon style="clip-path:url(#SVGID_2_);fill:#EC1F24;" points="229.39,3516.56 392.3,3822.93 385.23,3822.93 229.39,3529.85 
											"/>
					<polygon style="clip-path:url(#SVGID_2_);fill:#EC1F24;" points="229.39,3503.26 399.37,3822.93 392.3,3822.93 229.39,3516.56 
											"/>
					<polygon style="clip-path:url(#SVGID_2_);fill:#EC1F24;" points="229.39,3489.96 406.44,3822.93 399.37,3822.93 
						229.39,3503.26 					"/>
					<polygon style="clip-path:url(#SVGID_2_);fill:#EC2024;" points="229.39,3476.66 413.52,3822.93 406.44,3822.93 
						229.39,3489.96 					"/>
					<polygon style="clip-path:url(#SVGID_2_);fill:#EC2024;" points="229.39,3463.36 420.59,3822.93 413.52,3822.93 
						229.39,3476.66 					"/>
					<polygon style="clip-path:url(#SVGID_2_);fill:#EC2024;" points="229.39,3450.07 427.66,3822.93 420.59,3822.93 
						229.39,3463.36 					"/>
					<polygon style="clip-path:url(#SVGID_2_);fill:#ED2124;" points="229.39,3436.77 434.73,3822.93 427.66,3822.93 
						229.39,3450.07 					"/>
					<polygon style="clip-path:url(#SVGID_2_);fill:#ED2124;" points="229.39,3423.47 441.8,3822.93 434.73,3822.93 229.39,3436.77 
											"/>
					<polygon style="clip-path:url(#SVGID_2_);fill:#ED2124;" points="229.39,3410.17 448.87,3822.93 441.8,3822.93 229.39,3423.47 
											"/>
					<polygon style="clip-path:url(#SVGID_2_);fill:#ED2224;" points="229.39,3407.28 233.7,3404.98 455.94,3822.93 448.87,3822.93 
						229.39,3410.17 					"/>
					<polygon style="clip-path:url(#SVGID_2_);fill:#ED2224;" points="233.7,3404.98 239.21,3402.05 463.02,3822.93 455.94,3822.93 
											"/>
					<polygon style="clip-path:url(#SVGID_2_);fill:#ED2324;" points="239.21,3402.05 244.72,3399.12 470.09,3822.93 
						463.02,3822.93 					"/>
					<polygon style="clip-path:url(#SVGID_2_);fill:#ED2324;" points="244.72,3399.12 250.24,3396.19 477.16,3822.93 
						470.09,3822.93 					"/>
					<polygon style="clip-path:url(#SVGID_2_);fill:#ED2424;" points="250.24,3396.19 255.75,3393.26 484.23,3822.93 
						477.16,3822.93 					"/>
					<polygon style="clip-path:url(#SVGID_2_);fill:#ED2424;" points="255.75,3393.26 261.26,3390.33 491.3,3822.93 484.23,3822.93 
											"/>
					<polygon style="clip-path:url(#SVGID_2_);fill:#ED2524;" points="261.26,3390.33 266.77,3387.4 498.37,3822.93 491.3,3822.93 
											"/>
					<polygon style="clip-path:url(#SVGID_2_);fill:#ED2524;" points="266.77,3387.4 272.29,3384.46 505.44,3822.93 498.37,3822.93 
											"/>
					<polygon style="clip-path:url(#SVGID_2_);fill:#ED2624;" points="272.29,3384.46 277.8,3381.53 512.51,3822.93 505.44,3822.93 
											"/>
					<polygon style="clip-path:url(#SVGID_2_);fill:#ED2624;" points="277.8,3381.53 283.31,3378.6 519.59,3822.93 512.51,3822.93 
											"/>
					<polygon style="clip-path:url(#SVGID_2_);fill:#ED2724;" points="283.31,3378.6 288.82,3375.67 526.66,3822.93 519.59,3822.93 
											"/>
					<polygon style="clip-path:url(#SVGID_2_);fill:#ED2724;" points="288.82,3375.67 294.34,3372.74 533.73,3822.93 
						526.66,3822.93 					"/>
					<polygon style="clip-path:url(#SVGID_2_);fill:#ED2824;" points="294.34,3372.74 299.85,3369.81 540.8,3822.93 533.73,3822.93 
											"/>
					<polygon style="clip-path:url(#SVGID_2_);fill:#ED2824;" points="299.85,3369.81 305.36,3366.88 547.87,3822.93 540.8,3822.93 
											"/>
					<polygon style="clip-path:url(#SVGID_2_);fill:#ED2924;" points="305.36,3366.88 310.87,3363.95 554.94,3822.93 
						547.87,3822.93 					"/>
					<polygon style="clip-path:url(#SVGID_2_);fill:#ED2A24;" points="310.87,3363.95 316.39,3361.01 562.01,3822.93 
						554.94,3822.93 					"/>
					<polygon style="clip-path:url(#SVGID_2_);fill:#EE2A24;" points="316.39,3361.01 321.9,3358.08 569.09,3822.93 562.01,3822.93 
											"/>
					<polygon style="clip-path:url(#SVGID_2_);fill:#EE2B24;" points="321.9,3358.08 327.41,3355.15 576.16,3822.93 569.09,3822.93 
											"/>
					<polygon style="clip-path:url(#SVGID_2_);fill:#EE2B24;" points="327.41,3355.15 332.92,3352.22 583.23,3822.93 
						576.16,3822.93 					"/>
					<polygon style="clip-path:url(#SVGID_2_);fill:#EE2C24;" points="332.92,3352.22 338.44,3349.29 590.3,3822.93 583.23,3822.93 
											"/>
					<polygon style="clip-path:url(#SVGID_2_);fill:#EE2D24;" points="338.44,3349.29 343.95,3346.36 597.37,3822.93 590.3,3822.93 
											"/>
					<polygon style="clip-path:url(#SVGID_2_);fill:#EE2D24;" points="343.95,3346.36 349.46,3343.43 604.44,3822.93 
						597.37,3822.93 					"/>
					<polygon style="clip-path:url(#SVGID_2_);fill:#EE2E24;" points="349.46,3343.43 354.98,3340.49 611.51,3822.93 
						604.44,3822.93 					"/>
					<polygon style="clip-path:url(#SVGID_2_);fill:#EE2F24;" points="354.98,3340.49 360.49,3337.56 618.58,3822.93 
						611.51,3822.93 					"/>
					<polygon style="clip-path:url(#SVGID_2_);fill:#EE2F24;" points="360.49,3337.56 366,3334.63 625.66,3822.93 618.58,3822.93 
											"/>
					<polygon style="clip-path:url(#SVGID_2_);fill:#EE3024;" points="366,3334.63 371.51,3331.7 632.73,3822.93 625.66,3822.93 
											"/>
					<polygon style="clip-path:url(#SVGID_2_);fill:#EE3124;" points="371.51,3331.7 377.03,3328.77 639.8,3822.93 632.73,3822.93 
											"/>
					<polygon style="clip-path:url(#SVGID_2_);fill:#EE3224;" points="377.03,3328.77 382.54,3325.84 646.87,3822.93 639.8,3822.93 
											"/>
					<polygon style="clip-path:url(#SVGID_2_);fill:#EE3225;" points="382.54,3325.84 388.05,3322.91 653.94,3822.93 
						646.87,3822.93 					"/>
					<polygon style="clip-path:url(#SVGID_2_);fill:#EF3325;" points="388.05,3322.91 393.56,3319.97 661.01,3822.93 
						653.94,3822.93 					"/>
					<polygon style="clip-path:url(#SVGID_2_);fill:#EF3425;" points="393.56,3319.97 399.08,3317.04 668.08,3822.93 
						661.01,3822.93 					"/>
					<polygon style="clip-path:url(#SVGID_2_);fill:#EF3525;" points="399.08,3317.04 404.59,3314.11 675.16,3822.93 
						668.08,3822.93 					"/>
					<polygon style="clip-path:url(#SVGID_2_);fill:#EF3525;" points="404.59,3314.11 410.1,3311.18 682.23,3822.93 675.16,3822.93 
											"/>
					<polygon style="clip-path:url(#SVGID_2_);fill:#EF3625;" points="410.1,3311.18 415.61,3308.25 689.3,3822.93 682.23,3822.93 
											"/>
					<polygon style="clip-path:url(#SVGID_2_);fill:#EF3725;" points="415.61,3308.25 421.13,3305.32 696.37,3822.93 689.3,3822.93 
											"/>
					<polygon style="clip-path:url(#SVGID_2_);fill:#EF3825;" points="421.13,3305.32 426.64,3302.39 703.44,3822.93 
						696.37,3822.93 					"/>
					<polygon style="clip-path:url(#SVGID_2_);fill:#EF3925;" points="426.64,3302.39 432.15,3299.46 710.51,3822.93 
						703.44,3822.93 					"/>
					<polygon style="clip-path:url(#SVGID_2_);fill:#EF3925;" points="432.15,3299.46 437.66,3296.52 717.58,3822.93 
						710.51,3822.93 					"/>
					<polygon style="clip-path:url(#SVGID_2_);fill:#EF3A25;" points="437.66,3296.52 443.18,3293.59 724.65,3822.93 
						717.58,3822.93 					"/>
					<polygon style="clip-path:url(#SVGID_2_);fill:#EF3B25;" points="443.18,3293.59 448.69,3290.66 731.73,3822.93 
						724.65,3822.93 					"/>
					<polygon style="clip-path:url(#SVGID_2_);fill:#EF3C25;" points="448.69,3290.66 454.2,3287.73 738.8,3822.93 731.73,3822.93 
											"/>
					<polygon style="clip-path:url(#SVGID_2_);fill:#F03D25;" points="454.2,3287.73 459.71,3284.8 745.87,3822.93 738.8,3822.93 
											"/>
					<polygon style="clip-path:url(#SVGID_2_);fill:#F03E25;" points="459.71,3284.8 465.23,3281.87 752.94,3822.93 745.87,3822.93 
											"/>
					<polygon style="clip-path:url(#SVGID_2_);fill:#F03E25;" points="465.23,3281.87 470.74,3278.94 760.01,3822.93 
						752.94,3822.93 					"/>
					<polygon style="clip-path:url(#SVGID_2_);fill:#F03F25;" points="470.74,3278.94 476.25,3276 767.08,3822.93 760.01,3822.93 
											"/>
					<polygon style="clip-path:url(#SVGID_2_);fill:#F04025;" points="476.25,3276 481.76,3273.07 774.15,3822.93 767.08,3822.93 
											"/>
					<polygon style="clip-path:url(#SVGID_2_);fill:#F04125;" points="481.76,3273.07 487.28,3270.14 781.23,3822.93 
						774.15,3822.93 					"/>
					<polygon style="clip-path:url(#SVGID_2_);fill:#F04225;" points="487.28,3270.14 492.79,3267.21 788.3,3822.93 781.23,3822.93 
											"/>
					<polygon style="clip-path:url(#SVGID_2_);fill:#F04325;" points="492.79,3267.21 498.3,3264.28 795.37,3822.93 788.3,3822.93 
											"/>
					<polygon style="clip-path:url(#SVGID_2_);fill:#F04425;" points="498.3,3264.28 503.81,3261.35 802.44,3822.93 795.37,3822.93 
											"/>
					<polygon style="clip-path:url(#SVGID_2_);fill:#F04525;" points="503.81,3261.35 509.33,3258.42 809.51,3822.93 
						802.44,3822.93 					"/>
					<polygon style="clip-path:url(#SVGID_2_);fill:#F14625;" points="509.33,3258.42 514.84,3255.49 816.58,3822.93 
						809.51,3822.93 					"/>
					<polygon style="clip-path:url(#SVGID_2_);fill:#F14725;" points="514.84,3255.49 520.35,3252.55 823.65,3822.93 
						816.58,3822.93 					"/>
					<polygon style="clip-path:url(#SVGID_2_);fill:#F14825;" points="520.35,3252.55 525.86,3249.62 830.72,3822.93 
						823.65,3822.93 					"/>
					<polygon style="clip-path:url(#SVGID_2_);fill:#F14925;" points="525.86,3249.62 531.38,3246.69 837.8,3822.93 830.72,3822.93 
											"/>
					<polygon style="clip-path:url(#SVGID_2_);fill:#F14A25;" points="531.38,3246.69 536.89,3243.76 844.87,3822.93 837.8,3822.93 
											"/>
					<polygon style="clip-path:url(#SVGID_2_);fill:#F14B25;" points="536.89,3243.76 542.4,3240.83 851.94,3822.93 844.87,3822.93 
											"/>
					<polygon style="clip-path:url(#SVGID_2_);fill:#F14C25;" points="542.4,3240.83 547.92,3237.9 859.01,3822.93 851.94,3822.93 
											"/>
					<polygon style="clip-path:url(#SVGID_2_);fill:#F14D25;" points="547.92,3237.9 553.43,3234.97 866.08,3822.93 859.01,3822.93 
											"/>
					<polygon style="clip-path:url(#SVGID_2_);fill:#F14E25;" points="553.43,3234.97 558.94,3232.03 873.15,3822.93 
						866.08,3822.93 					"/>
					<polygon style="clip-path:url(#SVGID_2_);fill:#F24F25;" points="558.94,3232.03 564.45,3229.1 880.22,3822.93 873.15,3822.93 
											"/>
					<polygon style="clip-path:url(#SVGID_2_);fill:#F25025;" points="564.45,3229.1 569.97,3226.17 887.3,3822.93 880.22,3822.93 
											"/>
					<polygon style="clip-path:url(#SVGID_2_);fill:#F25125;" points="569.97,3226.17 575.48,3223.24 894.37,3822.93 887.3,3822.93 
											"/>
					<polygon style="clip-path:url(#SVGID_2_);fill:#F25225;" points="575.48,3223.24 580.99,3220.31 901.44,3822.93 
						894.37,3822.93 					"/>
					<polygon style="clip-path:url(#SVGID_2_);fill:#F25325;" points="580.99,3220.31 586.5,3217.38 906.99,3820.06 901.6,3822.93 
						901.44,3822.93 					"/>
					
						<rect x="746.38" y="3175.96" transform="matrix(0.8829 -0.4695 0.4695 0.8829 -1563.5939 763.6345)" style="clip-path:url(#SVGID_2_);fill:#F25425;" width="6.24" height="682.6"/>
					
						<rect x="751.89" y="3173.02" transform="matrix(0.8829 -0.4695 0.4695 0.8829 -1561.6252 765.9241)" style="clip-path:url(#SVGID_2_);fill:#F25525;" width="6.24" height="682.6"/>
					
						<rect x="757.4" y="3170.09" transform="matrix(0.8829 -0.4695 0.4695 0.8829 -1559.5508 768.1245)" style="clip-path:url(#SVGID_2_);fill:#F25625;" width="6.24" height="682.6"/>
					
						<rect x="762.92" y="3167.16" transform="matrix(0.8829 -0.4695 0.4695 0.8829 -1557.5751 770.4084)" style="clip-path:url(#SVGID_2_);fill:#F25725;" width="6.24" height="682.6"/>
					
						<rect x="768.43" y="3164.23" transform="matrix(0.8829 -0.4695 0.4695 0.8829 -1555.567 772.665)" style="clip-path:url(#SVGID_2_);fill:#F35825;" width="6.24" height="682.6"/>
					
						<rect x="773.94" y="3161.3" transform="matrix(0.8829 -0.4695 0.4695 0.8829 -1553.5139 774.8832)" style="clip-path:url(#SVGID_2_);fill:#F35925;" width="6.24" height="682.6"/>
					
						<rect x="779.45" y="3158.37" transform="matrix(0.8829 -0.4695 0.4695 0.8829 -1551.5168 777.1492)" style="clip-path:url(#SVGID_2_);fill:#F35A25;" width="6.24" height="682.6"/>
					
						<rect x="784.97" y="3155.44" transform="matrix(0.8829 -0.4695 0.4695 0.8829 -1549.4429 779.3493)" style="clip-path:url(#SVGID_2_);fill:#F35C25;" width="6.24" height="682.6"/>
					
						<rect x="790.48" y="3152.5" transform="matrix(0.8829 -0.4695 0.4695 0.8829 -1547.4734 781.6393)" style="clip-path:url(#SVGID_2_);fill:#F35D25;" width="6.24" height="682.6"/>
					
						<rect x="795.99" y="3149.57" transform="matrix(0.8829 -0.4695 0.4695 0.8829 -1545.4518 783.8843)" style="clip-path:url(#SVGID_2_);fill:#F35E26;" width="6.24" height="682.6"/>
					
						<rect x="801.51" y="3146.64" transform="matrix(0.8829 -0.4695 0.4695 0.8829 -1543.3781 786.0842)" style="clip-path:url(#SVGID_2_);fill:#F35F26;" width="6.24" height="682.6"/>
					
						<rect x="807.02" y="3143.71" transform="matrix(0.8829 -0.4695 0.4695 0.8829 -1541.4083 788.3744)" style="clip-path:url(#SVGID_2_);fill:#F36026;" width="6.24" height="682.6"/>
					
						<rect x="812.53" y="3140.78" transform="matrix(0.8829 -0.4695 0.4695 0.8829 -1539.3279 790.5681)" style="clip-path:url(#SVGID_2_);fill:#F46126;" width="6.24" height="682.6"/>
					
						<rect x="818.04" y="3137.85" transform="matrix(0.8829 -0.4695 0.4695 0.8829 -1537.365 792.8644)" style="clip-path:url(#SVGID_2_);fill:#F46226;" width="6.24" height="682.6"/>
					
						<rect x="823.56" y="3134.92" transform="matrix(0.8829 -0.4695 0.4695 0.8829 -1535.3433 795.1095)" style="clip-path:url(#SVGID_2_);fill:#F46426;" width="6.24" height="682.6"/>
					
						<rect x="829.07" y="3131.99" transform="matrix(0.8829 -0.4695 0.4695 0.8829 -1533.2701 797.309)" style="clip-path:url(#SVGID_2_);fill:#F46526;" width="6.24" height="682.6"/>
					
						<rect x="834.58" y="3129.05" transform="matrix(0.8829 -0.4695 0.4695 0.8829 -1531.2999 799.5995)" style="clip-path:url(#SVGID_2_);fill:#F46626;" width="6.24" height="682.6"/>
					
						<rect x="840.09" y="3126.12" transform="matrix(0.8829 -0.4695 0.4695 0.8829 -1529.2269 801.799)" style="clip-path:url(#SVGID_2_);fill:#F46726;" width="6.24" height="682.6"/>
					
						<rect x="845.61" y="3123.19" transform="matrix(0.8829 -0.4695 0.4695 0.8829 -1527.2566 804.0896)" style="clip-path:url(#SVGID_2_);fill:#F46826;" width="6.24" height="682.6"/>
					
						<rect x="851.12" y="3120.26" transform="matrix(0.8829 -0.4695 0.4695 0.8829 -1525.2349 806.3347)" style="clip-path:url(#SVGID_2_);fill:#F46A26;" width="6.24" height="682.6"/>
					
						<rect x="856.63" y="3117.33" transform="matrix(0.8829 -0.4695 0.4695 0.8829 -1523.1621 808.5338)" style="clip-path:url(#SVGID_2_);fill:#F56B26;" width="6.24" height="682.6"/>
					
						<rect x="862.14" y="3114.4" transform="matrix(0.8829 -0.4695 0.4695 0.8829 -1521.1915 810.8247)" style="clip-path:url(#SVGID_2_);fill:#F56C26;" width="6.24" height="682.6"/>
					
						<rect x="867.66" y="3111.47" transform="matrix(0.8829 -0.4695 0.4695 0.8829 -1519.119 813.0237)" style="clip-path:url(#SVGID_2_);fill:#F56D26;" width="6.24" height="682.6"/>
					
						<rect x="873.17" y="3108.53" transform="matrix(0.8829 -0.4695 0.4695 0.8829 -1517.1481 815.3148)" style="clip-path:url(#SVGID_2_);fill:#F56F26;" width="6.24" height="682.6"/>
					
						<rect x="878.68" y="3105.6" transform="matrix(0.8829 -0.4695 0.4695 0.8829 -1515.1265 817.5598)" style="clip-path:url(#SVGID_2_);fill:#F57026;" width="6.24" height="682.6"/>
					
						<rect x="884.19" y="3102.67" transform="matrix(0.8829 -0.4695 0.4695 0.8829 -1513.0542 819.7587)" style="clip-path:url(#SVGID_2_);fill:#F57126;" width="6.24" height="682.6"/>
					
						<rect x="889.71" y="3099.74" transform="matrix(0.8829 -0.4695 0.4695 0.8829 -1511.083 822.0499)" style="clip-path:url(#SVGID_2_);fill:#F57226;" width="6.24" height="682.6"/>
					
						<rect x="895.22" y="3096.81" transform="matrix(0.8829 -0.4695 0.4695 0.8829 -1509.0111 824.2486)" style="clip-path:url(#SVGID_2_);fill:#F67426;" width="6.24" height="682.6"/>
					
						<rect x="900.73" y="3093.88" transform="matrix(0.8829 -0.4695 0.4695 0.8829 -1507.0397 826.54)" style="clip-path:url(#SVGID_2_);fill:#F67526;" width="6.24" height="682.6"/>
					
						<rect x="906.24" y="3090.95" transform="matrix(0.8829 -0.4695 0.4695 0.8829 -1505.0179 828.785)" style="clip-path:url(#SVGID_2_);fill:#F67626;" width="6.24" height="682.6"/>
					
						<rect x="911.76" y="3088.02" transform="matrix(0.8829 -0.4695 0.4695 0.8829 -1502.9463 830.9835)" style="clip-path:url(#SVGID_2_);fill:#F67726;" width="6.24" height="682.6"/>
					
						<rect x="917.27" y="3085.08" transform="matrix(0.8829 -0.4695 0.4695 0.8829 -1500.9746 833.2751)" style="clip-path:url(#SVGID_2_);fill:#F67926;" width="6.24" height="682.6"/>
					
						<rect x="922.78" y="3082.15" transform="matrix(0.8829 -0.4695 0.4695 0.8829 -1498.9031 835.4734)" style="clip-path:url(#SVGID_2_);fill:#F67A26;" width="6.24" height="682.6"/>
					
						<rect x="928.29" y="3079.22" transform="matrix(0.8829 -0.4695 0.4695 0.8829 -1496.9313 837.7651)" style="clip-path:url(#SVGID_2_);fill:#F67B26;" width="6.24" height="682.6"/>
					
						<rect x="933.81" y="3076.29" transform="matrix(0.8829 -0.4695 0.4695 0.8829 -1494.9095 840.0102)" style="clip-path:url(#SVGID_2_);fill:#F77D26;" width="6.24" height="682.6"/>
					
						<rect x="939.32" y="3073.36" transform="matrix(0.8829 -0.4695 0.4695 0.8829 -1492.8384 842.2083)" style="clip-path:url(#SVGID_2_);fill:#F77E26;" width="6.24" height="682.6"/>
					
						<rect x="944.83" y="3070.43" transform="matrix(0.8829 -0.4695 0.4695 0.8829 -1490.8662 844.5002)" style="clip-path:url(#SVGID_2_);fill:#F77F26;" width="6.24" height="682.6"/>
					
						<rect x="950.34" y="3067.5" transform="matrix(0.8829 -0.4695 0.4695 0.8829 -1488.7952 846.6983)" style="clip-path:url(#SVGID_2_);fill:#F78126;" width="6.24" height="682.6"/>
					
						<rect x="955.86" y="3064.56" transform="matrix(0.8829 -0.4695 0.4695 0.8829 -1486.8228 848.9903)" style="clip-path:url(#SVGID_2_);fill:#F78226;" width="6.24" height="682.6"/>
					
						<rect x="961.37" y="3061.63" transform="matrix(0.8829 -0.4695 0.4695 0.8829 -1484.8011 851.2354)" style="clip-path:url(#SVGID_2_);fill:#F78426;" width="6.24" height="682.6"/>
					
						<rect x="966.88" y="3058.7" transform="matrix(0.8829 -0.4695 0.4695 0.8829 -1482.7305 853.4332)" style="clip-path:url(#SVGID_2_);fill:#F78526;" width="6.24" height="682.6"/>
					
						<rect x="972.4" y="3055.77" transform="matrix(0.8829 -0.4695 0.4695 0.8829 -1480.7577 855.7254)" style="clip-path:url(#SVGID_2_);fill:#F88626;" width="6.24" height="682.6"/>
					
						<rect x="977.91" y="3052.84" transform="matrix(0.8829 -0.4695 0.4695 0.8829 -1478.6873 857.9231)" style="clip-path:url(#SVGID_2_);fill:#F88826;" width="6.24" height="682.6"/>
					
						<rect x="983.42" y="3049.91" transform="matrix(0.8829 -0.4695 0.4695 0.8829 -1476.7144 860.2155)" style="clip-path:url(#SVGID_2_);fill:#F88927;" width="6.24" height="682.6"/>
					
						<rect x="988.93" y="3046.98" transform="matrix(0.8829 -0.4695 0.4695 0.8829 -1474.6926 862.4605)" style="clip-path:url(#SVGID_2_);fill:#F88A27;" width="6.24" height="682.6"/>
					
						<rect x="994.45" y="3044.04" transform="matrix(0.8829 -0.4695 0.4695 0.8829 -1472.6224 864.658)" style="clip-path:url(#SVGID_2_);fill:#F88C27;" width="6.24" height="682.6"/>
					
						<rect x="999.96" y="3041.11" transform="matrix(0.8829 -0.4695 0.4695 0.8829 -1470.6493 866.9506)" style="clip-path:url(#SVGID_2_);fill:#F88D27;" width="6.24" height="682.6"/>
					
						<rect x="1005.47" y="3038.18" transform="matrix(0.8829 -0.4695 0.4695 0.8829 -1468.5793 869.1479)" style="clip-path:url(#SVGID_2_);fill:#F98F27;" width="6.24" height="682.6"/>
					
						<rect x="1010.98" y="3035.25" transform="matrix(0.8829 -0.4695 0.4695 0.8829 -1466.606 871.4407)" style="clip-path:url(#SVGID_2_);fill:#F99027;" width="6.24" height="682.6"/>
					
						<rect x="1016.5" y="3032.32" transform="matrix(0.8829 -0.4695 0.4695 0.8829 -1464.5842 873.6857)" style="clip-path:url(#SVGID_2_);fill:#F99227;" width="6.24" height="682.6"/>
					
						<rect x="1022.01" y="3029.39" transform="matrix(0.8829 -0.4695 0.4695 0.8829 -1462.5145 875.8828)" style="clip-path:url(#SVGID_2_);fill:#F99327;" width="6.24" height="682.6"/>
					
						<rect x="1027.52" y="3026.46" transform="matrix(0.8829 -0.4695 0.4695 0.8829 -1460.5409 878.1757)" style="clip-path:url(#SVGID_2_);fill:#F99427;" width="6.24" height="682.6"/>
					
						<rect x="1033.03" y="3023.53" transform="matrix(0.8829 -0.4695 0.4695 0.8829 -1458.4714 880.3728)" style="clip-path:url(#SVGID_2_);fill:#F99627;" width="6.24" height="682.6"/>
					
						<rect x="1038.55" y="3020.59" transform="matrix(0.8829 -0.4695 0.4695 0.8829 -1456.4976 882.6658)" style="clip-path:url(#SVGID_2_);fill:#F99727;" width="6.24" height="682.6"/>
					
						<rect x="1044.06" y="3017.66" transform="matrix(0.8829 -0.4695 0.4695 0.8829 -1454.4282 884.8627)" style="clip-path:url(#SVGID_2_);fill:#FA9927;" width="6.24" height="682.6"/>
					
						<rect x="1049.57" y="3014.73" transform="matrix(0.8829 -0.4695 0.4695 0.8829 -1452.4541 887.1559)" style="clip-path:url(#SVGID_2_);fill:#FA9A27;" width="6.24" height="682.6"/>
					
						<rect x="1055.08" y="3011.8" transform="matrix(0.8829 -0.4695 0.4695 0.8829 -1450.4325 889.4009)" style="clip-path:url(#SVGID_2_);fill:#FA9C27;" width="6.24" height="682.6"/>
					
						<rect x="1060.6" y="3008.87" transform="matrix(0.8829 -0.4695 0.4695 0.8829 -1448.3634 891.5976)" style="clip-path:url(#SVGID_2_);fill:#FA9D27;" width="6.24" height="682.6"/>
					
						<rect x="1066.11" y="3005.94" transform="matrix(0.8829 -0.4695 0.4695 0.8829 -1446.389 893.891)" style="clip-path:url(#SVGID_2_);fill:#FA9F27;" width="6.24" height="682.6"/>
					
						<rect x="1071.62" y="3003.01" transform="matrix(0.8829 -0.4695 0.4695 0.8829 -1444.3203 896.0875)" style="clip-path:url(#SVGID_2_);fill:#FAA027;" width="6.24" height="682.6"/>
					
						<rect x="1077.13" y="3000.07" transform="matrix(0.8829 -0.4695 0.4695 0.8829 -1442.3457 898.381)" style="clip-path:url(#SVGID_2_);fill:#FBA227;" width="6.24" height="682.6"/>
					
						<rect x="1082.65" y="2997.14" transform="matrix(0.8829 -0.4695 0.4695 0.8829 -1440.324 900.6261)" style="clip-path:url(#SVGID_2_);fill:#FBA327;" width="6.24" height="682.6"/>
					<polygon style="clip-path:url(#SVGID_2_);fill:#FBA527;" points="928.28,3035.63 931.98,3033.66 934.31,3033.66 
						1254.28,3635.39 1248.77,3638.32 					"/>
					<polygon style="clip-path:url(#SVGID_2_);fill:#FBA627;" points="941.38,3033.66 1259.79,3632.46 1254.28,3635.39 
						934.31,3033.66 					"/>
					<polygon style="clip-path:url(#SVGID_2_);fill:#FBA827;" points="948.45,3033.66 1265.3,3629.53 1259.79,3632.46 
						941.38,3033.66 					"/>
					<polygon style="clip-path:url(#SVGID_2_);fill:#FBAA27;" points="955.52,3033.66 1270.82,3626.59 1265.3,3629.53 
						948.45,3033.66 					"/>
					<polygon style="clip-path:url(#SVGID_2_);fill:#FCAB27;" points="962.59,3033.66 1276.33,3623.66 1270.82,3626.59 
						955.52,3033.66 					"/>
					<polygon style="clip-path:url(#SVGID_2_);fill:#FCAD27;" points="969.66,3033.66 1281.84,3620.73 1276.33,3623.66 
						962.59,3033.66 					"/>
					<polygon style="clip-path:url(#SVGID_2_);fill:#FCAE27;" points="976.74,3033.66 1287.35,3617.8 1281.84,3620.73 
						969.66,3033.66 					"/>
					<polygon style="clip-path:url(#SVGID_2_);fill:#FCB027;" points="983.81,3033.66 1292.87,3614.87 1287.35,3617.8 
						976.74,3033.66 					"/>
					<polygon style="clip-path:url(#SVGID_2_);fill:#FCB127;" points="990.88,3033.66 1298.38,3611.94 1292.87,3614.87 
						983.81,3033.66 					"/>
					<polygon style="clip-path:url(#SVGID_2_);fill:#FCB327;" points="997.95,3033.66 1301.14,3603.84 1301.14,3610.47 
						1298.38,3611.94 990.88,3033.66 					"/>
					<polygon style="clip-path:url(#SVGID_2_);fill:#FDB528;" points="1005.02,3033.66 1301.14,3590.54 1301.14,3603.84 
						997.95,3033.66 					"/>
					<polygon style="clip-path:url(#SVGID_2_);fill:#FDB628;" points="1012.09,3033.66 1301.14,3577.24 1301.14,3590.54 
						1005.02,3033.66 					"/>
					<polygon style="clip-path:url(#SVGID_2_);fill:#FDB828;" points="1019.16,3033.66 1301.14,3563.94 1301.14,3577.24 
						1012.09,3033.66 					"/>
					<polygon style="clip-path:url(#SVGID_2_);fill:#FDB928;" points="1026.23,3033.66 1301.14,3550.65 1301.14,3563.94 
						1019.16,3033.66 					"/>
					<polygon style="clip-path:url(#SVGID_2_);fill:#FDBB28;" points="1033.31,3033.66 1301.14,3537.35 1301.14,3550.65 
						1026.23,3033.66 					"/>
					<polygon style="clip-path:url(#SVGID_2_);fill:#FEBD28;" points="1040.38,3033.66 1301.14,3524.05 1301.14,3537.35 
						1033.31,3033.66 					"/>
					<polygon style="clip-path:url(#SVGID_2_);fill:#FEBE28;" points="1047.45,3033.66 1301.14,3510.75 1301.14,3524.05 
						1040.38,3033.66 					"/>
					<polygon style="clip-path:url(#SVGID_2_);fill:#FEC028;" points="1054.52,3033.66 1301.14,3497.45 1301.14,3510.75 
						1047.45,3033.66 					"/>
					<polygon style="clip-path:url(#SVGID_2_);fill:#FEC228;" points="1061.59,3033.66 1301.14,3484.16 1301.14,3497.45 
						1054.52,3033.66 					"/>
					<polygon style="clip-path:url(#SVGID_2_);fill:#FEC328;" points="1068.66,3033.66 1301.14,3470.86 1301.14,3484.16 
						1061.59,3033.66 					"/>
					<polygon style="clip-path:url(#SVGID_2_);fill:#FEC528;" points="1075.73,3033.66 1301.14,3457.56 1301.14,3470.86 
						1068.66,3033.66 					"/>
					<polygon style="clip-path:url(#SVGID_2_);fill:#FFC728;" points="1082.81,3033.66 1301.14,3444.26 1301.14,3457.56 
						1075.73,3033.66 					"/>
					<polygon style="clip-path:url(#SVGID_2_);fill:#FFC828;" points="1089.88,3033.66 1301.14,3430.96 1301.14,3444.26 
						1082.81,3033.66 					"/>
					<polygon style="clip-path:url(#SVGID_2_);fill:#FFCA28;" points="1096.95,3033.66 1301.14,3417.67 1301.14,3430.96 
						1089.88,3033.66 					"/>
					<polygon style="clip-path:url(#SVGID_2_);fill:#FFCA28;" points="1301.14,3417.67 1096.95,3033.66 1301.14,3033.66 					"/>
				</g>
			</g>
			<g style="opacity:0.5;">
				<g>
					<path style="fill:#FFFFFF;" d="M420.73,3660.22c191.23-165.86,162.58-359.63,372.36-450.67
						c262.53-113.93,438.69,143.18,438.69,143.18s6.14,27.75,7.51,69.6c7.08-74.21-5.62-131.55-5.62-131.55
						s-176.16-257.11-438.69-143.18c-262.53,113.94-151.6,388.76-565.59,568.43C300.85,3685.01,363.92,3667.9,420.73,3660.22z"/>
				</g>
			</g>
			<g style="opacity:0.3;">
				<path style="fill:#371A45;" d="M1228.8,3484.43c-30.6,48.62-77.33,93.1-148.02,123.77c-217.13,94.23-345.47-85.49-617.58-48.81
					c-52.59,55.68-125.08,109.44-233.82,156.63c413.99-179.67,546.7,106.9,809.23-7.03
					C1156.84,3657.68,1208.12,3567.78,1228.8,3484.43z"/>
			</g>
			<g>
				<path style="fill:#FFD553;" d="M557.19,3580.06c241.02-104.6,404.1,62.15,556.95-4.18c152.84-66.33,97.61-280.24,97.61-280.24
					s-118.51-186.44-271.35-120.11S798.21,3475.46,557.19,3580.06z"/>
			</g>
			<g>
				<path style="fill:#371A45;" d="M906.53,3759.53c-64.66,0-125.07-17.46-187.54-35.51c-126.4-36.53-269.65-77.92-492.75,18.9
					c-11.31,4.91-24.47-0.28-29.38-11.6c-1.26-2.89-1.85-5.91-1.85-8.88c0-8.63,5.03-16.85,13.45-20.5
					c223.41-96.96,293.14-225.16,354.66-338.27c51.18-94.1,99.52-182.98,222.96-236.55c114.55-49.72,231.74-39.13,338.88,30.63
					c79.67,51.86,125.24,117.63,127.14,120.41c1.61,2.36,2.76,5,3.38,7.79c0.73,3.29,17.64,81.49,1.11,175.1
					c-22.23,125.9-94.53,218.73-209.08,268.44C997.18,3751.32,950.85,3759.53,906.53,3759.53z M489.13,3637.99
					c93.08,0,170.26,22.3,242.26,43.11c101.58,29.35,189.32,54.7,298.33,7.4c226.65-98.36,189.43-352.91,182.95-388.7
					c-22.56-30.9-180.12-230.97-408.8-131.7c-109.33,47.45-152.04,125.98-201.5,216.91c-45.95,84.48-96.23,176.94-205.77,260.3
					C429.22,3640.18,459.96,3637.99,489.13,3637.99z"/>
			</g>
		</g>
		<g>
			<path style="fill:#FFFFFF;" d="M2586.15,1949.99c0,0,290.2,121.95,339.39,197.34s-131.16,77.23-131.16,77.23"/>
		</g>
		<g>
			<path style="fill:#371A45;" d="M2794.38,2250.32c-8.06,0-15.65-3.77-20.53-10.2l-208.23-274.57c-7.05-9.29-6.97-22.15,0.17-31.36
				c7.15-9.21,19.59-12.48,30.33-7.96c30.45,12.8,298.98,127.31,350.99,207.02c18.26,27.99,13.56,49.8,6.41,63.17
				c-26.09,48.77-128.21,53.59-158.89,53.9C2794.56,2250.32,2794.47,2250.32,2794.38,2250.32z M2667.64,2014.79l139.26,183.63
				c48.22-2.28,94.64-14.02,101.21-26.31c0.62-1.17-0.61-5.32-4.13-10.71C2879.35,2123.68,2767.9,2062.4,2667.64,2014.79z"/>
		</g>
		<g>
			<g>
				<path style="fill:#FFFFFF;" d="M1367.93,1310.59c-112.73,84.49-216.03,486.78-189.92,726.59
					c26.11,239.81,450.01,257.77,692.43,249.99c242.42-7.78,241.58-555.91,238.41-702.74
					C2103.89,1355.15,1534.97,1185.4,1367.93,1310.59z"/>
			</g>
			<g style="opacity:0.25;">
				<path style="fill:#371A45;" d="M1870.45,2287.17c-242.42,7.78-666.3-10.21-692.46-250.01c-3.39-31.41-4.62-65.57-3.83-101.47
					c66.95,52.64,160.23,5.79,171.48-58.56c69.45-397.29,217.4-549.76,288.97-601.94c218.09,30.57,470.97,156.7,474.22,309.25
					C2112.04,1731.26,2112.87,2279.4,1870.45,2287.17z"/>
			</g>
			<g>
				<path style="fill:#371A45;" d="M1785.94,2314.33c-292.94,0-609.37-52.35-633.55-274.36c-25.26-232,70.86-653.15,200.08-749.99
					c114.57-85.87,378.88-44.88,558.07,42.33c142.48,69.35,222.05,158.69,224.06,251.57c5.82,268.94-20.66,721.26-263.34,729.05
					C1843.25,2313.82,1814.71,2314.33,1785.94,2314.33z M1539.93,1293.58c-66.69,0-122.61,12.19-156.55,37.63l0,0
					c-104.09,78.01-204.89,472.32-179.76,703.19c23.45,215.37,427.34,234.68,665.99,227.03c211.51-6.79,216.87-519.47,213.48-676.44
					c-1.55-71.54-72.66-146.76-195.1-206.35C1774.26,1323.27,1643.99,1293.58,1539.93,1293.58z M1367.93,1310.59h0.07H1367.93z"/>
			</g>
			<g>
				<path style="fill:#FFFFFF;" d="M1391.73,1712.95l-107.59-42.89c-24.32-9.69-51.68,4.07-58.25,29.41
					c-22.6,87.19-57.41,267.9,30.32,304.89c106.32,44.83,144.01-77.82,162.7-246.32
					C1421.06,1738.63,1409.88,1720.19,1391.73,1712.95z"/>
			</g>
			<g style="opacity:0.25;">
				<path style="fill:#371A45;" d="M1418.69,1757.78c-18.29,168.55-55.71,291.32-162.12,246.69
					c-43.71-18.26-57.14-72.3-56.79-132.66c8.87,17.28,21.58,30.66,39.37,38.09c95.28,39.9,135.29-54.32,155.66-195.54
					C1411.02,1722.27,1420.72,1739.62,1418.69,1757.78z"/>
			</g>
			<g>
				<path style="fill:#371A45;" d="M1297.58,2037.55c-15.76,0-32.53-3.7-50.2-11.11c-97.25-40.75-78.08-203.42-44.87-332.71
					c4.79-18.67,17.4-34.4,34.59-43.15c17.24-8.78,37.44-9.73,55.43-2.61l107.69,42.65c28.09,11.12,45.44,39.8,42.19,69.74
					c-16.82,154.85-46.04,233.92-97.71,264.4C1330.23,2033.29,1314.49,2037.55,1297.58,2037.55z M1267.67,1690.84
					c-3.06,0-6.11,0.73-8.96,2.18c-2.94,1.5-8.17,5.13-10.08,12.56c-30.24,117.73-41.61,252.32,17.15,276.94
					c22.34,9.36,40.24,9.76,54.71,1.22c53.14-31.34,69.26-179.75,74.55-228.52c0.95-8.7-4.14-17.06-12.37-20.32l-107.69-42.65
					C1272.6,1691.31,1270.13,1690.84,1267.67,1690.84z"/>
			</g>
			<g>
				<path style="fill:#371A45;" d="M1352.16,1311.12l126.77,58.55c42.17,19.82,84.24,39.41,126.15,60.72
					c6.35,3.23,8.87,10.99,5.65,17.33c-3.04,5.97-10.09,8.56-16.2,6.16l-0.22-0.09c-42.7-16.96-86.53-32.65-130.12-48.4
					l-131.22-46.46l-0.24-0.08c-13.43-4.75-20.46-19.5-15.71-32.93c4.76-13.43,19.5-20.46,32.93-15.71
					C1350.7,1310.49,1351.46,1310.8,1352.16,1311.12z"/>
			</g>
		</g>
		<g>
			<path style="fill:#FFFFFF;" d="M3299.72,1233.57c-41.8,142.6-359.27,406.68-814.71,419.88c-44.05,1.35-89.4,0.26-135.9-3.48
				l-40.64-173.58l-32.53-138.93c0,0,70.72-12.88,167.4-38.58c76.39-20.22,168.94-48.44,255.7-84.5
				c81.8-34.01,158.51-75.04,211.45-123.02c0,0,2.9-142.86,43.41-157.41c49.47-17.78,86.12,82.7,86.12,82.7
				s112.46-115.74,178.09-104.54C3315.7,928.72,3345.65,1077.18,3299.72,1233.57z"/>
		</g>
		<g style="opacity:0.35;">
			<path style="fill:#371A45;" d="M3320.21,1116.99c-1.93,36.97-8.76,76.52-20.48,116.58c-45.86,156.38-423.23,458.91-950.61,416.4
				l-73.17-312.51c0,0,21.96-3.99,58.1-11.98l85.51,165.64C2855.16,1622.36,3248.65,1277.88,3320.21,1116.99z"/>
		</g>
		<g>
			<path style="fill:#371A45;" d="M2449.16,1679.79c-33.41,0-67.4-1.33-102.09-4.12c-14.18-1.14-24.75-13.57-23.61-27.75
				c1.15-14.19,13.62-24.75,27.75-23.61c520.13,41.9,883.29-259.99,923.8-398.03c28.91-98.52,26.08-196.62-7.21-249.92
				c-13.76-22.04-31.93-35.11-53.99-38.87c-35.97-6.14-112.48,53.11-155.3,97.12l-28.62,29.42l-14.06-38.55
				c-11.33-30.85-37.38-72.14-52.8-67.44c-12.77,9.11-25.51,72.57-26.8,133.81l-0.24,11.1l-8.23,7.46
				c-183.51,166.2-628.34,248.95-647.18,252.39c-13.99,2.55-27.41-6.72-29.97-20.71c-2.55-14,6.72-27.42,20.71-29.98
				c4.41-0.8,435.7-81.03,613.72-232.75c2.02-52.84,12.25-152.44,60.14-169.67c48.6-17.52,83.97,28.18,103.11,63.27
				c41.22-37.4,116.54-96.07,174.17-86.27c36.67,6.24,67.46,27.81,89.04,62.37c41.36,66.22,46.32,178,12.94,291.73
				C3277.7,1400.1,2933.1,1679.77,2449.16,1679.79z M2963.27,957.9"/>
		</g>
		<g>
			<path style="fill:#FFFFFF;" d="M2826.9,2267.39c0,0-637.71,246.62-861.47,228.97c-223.69-17.65-464.64-53.07-477.85-477.46
				c-8.18-263.82,122.31-523.39,222.27-681.96c60.87-96.61,110.4-155.81,110.4-155.81l615.75,31.43c0,0,2.38,32.46,7.34,86.31
				c3.09,33.62,7.21,75.55,12.43,123.09c7.47,68.27,17.13,148.08,29.24,231.48c18.55,127.79,42.83,263.95,73.43,379.75
				C2571.65,2083.31,2781.88,2097.03,2826.9,2267.39z"/>
		</g>
		<g>
			<path style="fill:#371A45;" d="M2471.16,1481.64c23.04,75.12,36.23,151.04,49.58,226.91c13.53,75.8,25.62,151.76,41.29,226.83
				c3.98,18.75,8.23,37.42,12.62,56.04l6.86,27.83l1.74,6.95l0.11,0.42l0.02-0.09l0.02-0.17c0-0.11-0.04-0.22-0.09-0.31
				c-0.05-0.09-0.17-0.18-0.23-0.22c0.08,0.03,0.14,0.06,0.19,0.11c0.13,0.1,0.07,0.18,0.19,0.4c0.35,0.3,0.67,0.62,0.96,0.97
				c0.32,0.63,1.93,1.67,2.82,2.56c4.83,3.91,12.46,8.22,20.31,12.22c7.92,4.05,16.47,7.98,25.19,11.94
				c17.43,7.91,35.56,16,53.5,25.08c35.83,18.07,71.72,40.16,101.77,70.71c14.99,15.19,28.37,32.39,39.18,51.18
				c10.85,18.77,19.07,39.04,24.64,59.81l6.01,22.39l-21.62,8.23c-101.41,38.61-203.18,74.4-306.1,108.04
				c-102.91,33.45-206.7,64.62-312.73,89.66c-53.09,12.32-106.61,23.45-161.88,29.67c-27.62,3.15-55.63,5.24-84.98,3.56
				c-7.53-0.2-13.97-0.91-20.8-1.42l-20.33-1.77c-13.57-1.24-27.18-2.56-40.83-4.19c-54.49-6.39-109.89-16.05-163.48-35.78
				c-26.73-9.86-52.88-22.34-77.34-37.97c-24.47-15.59-47.15-34.37-67-55.72c-19.85-21.38-36.62-45.35-50.58-70.5
				c-13.91-25.18-25.44-51.5-34.01-78.47l-3.4-10.07l-2.85-10.18l-5.62-20.38l-4.61-20.52l-2.28-10.27l-1.81-10.31l-3.6-20.63
				c-1.07-6.88-1.84-13.78-2.77-20.67c-2-13.78-3.16-27.57-4.32-41.37c-4.59-54.86-4.45-111.07,1.45-166.13
				c5.75-55.15,16.47-109.52,30.87-162.68c28.79-106.43,72.29-207.74,123.47-304.27c25.6-48.26,51.18-96.73,82.25-141.77
				c31.08-44.94,65.46-87.88,110.74-121.66c3.9-2.91,9.43-2.11,12.35,1.8c1.99,2.66,2.24,6.08,0.97,8.91l-0.15,0.32
				c-22.62,49.91-50.25,95.27-78.3,140.38c-27.58,45.35-57.35,89.43-82.29,136.35c-49.93,93.6-91.76,191.71-119.31,293.43
				c-13.76,50.82-23.93,102.51-29.34,154.54c-5.55,52.1-5.7,104.08-1.34,156.59c1.1,13.05,2.18,26.11,4.07,38.99
				c0.87,6.46,1.58,12.95,2.58,19.38l3.36,19.18l1.67,9.59l2.11,9.45l4.24,18.9l5.13,18.57l2.58,9.28l3.08,9.07
				c7.72,24.4,18.01,47.64,30.11,69.58c12.17,21.91,26.51,42.4,43.35,60.53c33.62,36.38,76.78,62.98,124.42,80.39
				c47.67,17.59,99.2,26.82,151.57,32.93c13.1,1.57,26.3,2.85,39.55,4.06l19.93,1.73c6.59,0.5,13.56,1.24,19.5,1.33
				c6.22,0.11,12.21,0.79,18.61,0.49l19.01-0.45c12.86-0.98,25.67-1.67,38.67-3.36c51.84-5.8,104.04-16.58,155.86-28.63
				c103.73-24.49,206.54-55.33,308.53-88.49c101.91-33.3,203.48-69.04,303.47-107.11l-15.61,30.62
				c-8.84-33.3-26.2-63.32-50.69-87.97c-24.36-24.84-55.17-44.22-88.3-60.9c-16.59-8.4-33.83-16.11-51.64-24.19
				c-8.89-4.05-17.95-8.19-27.26-12.94c-9.32-4.85-18.83-9.79-29.17-17.95c-2.67-2.37-5.13-4.07-7.88-7.22l-3.94-4.38
				c-1.32-1.71-2.62-3.72-3.85-5.62c-2.46-3.23-4.65-9.66-5.87-13.45l-1.85-7.11l-7.4-28.45c-4.74-18.99-9.32-38.01-13.63-57.07
				c-8.7-38.09-17.03-76.22-24.35-114.52c-7.38-38.28-13.49-76.75-18.94-115.28c-10.64-77.09-17.95-154.65-13.15-233.28
				c0.3-4.81,4.43-8.47,9.24-8.18C2467.07,1475.7,2470.11,1478.27,2471.16,1481.64z"/>
		</g>
		<g>
			<path style="fill:#00AAFF;" d="M1549.4,3564l-110.36,17.17c-49.93,7.77-100.09-12.5-130.59-52.78l0,0
				c-90.85-119.94-147.15-262.45-162.8-412.09v0c-5.25-50.25,17.51-99.33,59.26-127.78l92.3-62.89"/>
		</g>
		<g style="opacity:0.6;">
			<g>
				<path style="fill:#FFFFFF;" d="M1316.83,2988.9l-91.39,62.29c-23.04,15.71-40.87,37.12-52.25,61.58
					c-11.32,24.44-16.19,51.93-13.25,79.71c2.23,21.43,5.25,42.75,8.99,63.91c-11.02-41.35-18.82-83.63-23.29-126.5
					c-2.64-25.09,1.72-49.97,12.03-72.09c10.2-22.09,26.34-41.43,47.23-55.69l92.31-62.88L1316.83,2988.9z"/>
			</g>
		</g>
		<g>
			<g style="opacity:0.35;">
				<path style="fill:#371A45;" d="M1215.18,3345.92C1215.18,3345.92,1215.18,3345.92,1215.18,3345.92
					c22.51,44.85,49.12,87.75,79.66,128.06c30.5,40.28,80.65,60.53,130.59,52.75l102.91-16.02l-231.13-585.1l-19.71,13.43
					l171.37,433.74l-110.39,17.19C1292.34,3397.16,1246.01,3380.34,1215.18,3345.92z M1427.83,3319.52l-150.33-380.47l6.22-4.24
					l151.54,383.56L1427.83,3319.52z"/>
			</g>
		</g>
		<g>
			<path style="fill:#EC1C24;" d="M1568.91,2756.07c-57.37-112.4-253.95-261.13-640.65-15.76c-5.07,3.22-3.54,11.04,2.37,12.1
				c64.35,11.47,367.05,63.04,422.47,220.47"/>
		</g>
		<g style="opacity:0.6;">
			<g>
				<path style="fill:#FFFFFF;" d="M993.38,2757.68c-27.75-5.94-49.98-9.8-62.74-12.08c-5.94-1.06-7.45-8.85-2.38-12.09
					c386.7-245.39,583.28-96.65,640.65,15.76l-23.38,23.47C1471.37,2676.98,1297.02,2589.62,993.38,2757.68z"/>
			</g>
		</g>
		<g>
			<path style="fill:#371A45;" d="M1353.1,2998.65c-10.62,0-20.57-6.62-24.3-17.22c-18.52-52.62-95.08-148.98-399.64-203.12
				l-3.05-0.54c-13.24-2.37-23.46-12.42-26.06-25.62c-2.6-13.21,3.06-26.39,14.41-33.6c187.98-119.29,351.89-161.03,487.13-124.07
				c119.33,32.61,172.81,115.67,190.27,149.86c6.47,12.67,1.44,28.19-11.24,34.66c-12.68,6.46-28.19,1.44-34.66-11.24
				c-14.34-28.1-58.44-96.4-157.95-123.58c-109.21-29.85-248.08,2.05-403.73,92.23c277.47,57.39,367.33,154.6,393.13,227.9
				c4.72,13.42-2.33,28.13-15.75,32.86C1358.83,2998.18,1355.94,2998.65,1353.1,2998.65z"/>
		</g>
		<g>
			<path style="fill:#D25658;" d="M1858.77,3489.81c34.94,121.26-4.34,370.73-454.32,455.89c-5.9,1.12-10.14-5.64-6.54-10.45
				c39.13-52.35,222.12-303.83,154.99-456.63"/>
		</g>
		<g>
			<path style="fill:#EC1C24;" d="M1404.46,3945.73c-5.91,1.07-10.12-5.66-6.53-10.48c20.02-26.82,77.81-105.88,120.38-197.18
				c40.26-86.25,66.89-183.48,35.26-257.8c-0.21-0.54-0.49-1.1-0.7-1.64l1.85,0.06l304.02,11.12c9.81,34.04,13.78,78.18,4.4,125.96
				C1839.31,3738.18,1728.16,3884.43,1404.46,3945.73z"/>
		</g>
		<g style="opacity:0.35;">
			<path style="fill:#371A45;" d="M1518.31,3738.07c40.26-86.25,66.89-183.48,35.26-257.8c0.39-0.51,0.76-1.07,1.15-1.58
				l304.02,11.12c9.81,34.04,13.78,78.18,4.4,125.96C1790.61,3677.32,1680.65,3725.66,1518.31,3738.07z"/>
		</g>
		<g>
			<path style="fill:#371A45;" d="M1403.11,3971.59c-11.01,0-21.32-5.6-27.34-15.25c-7.13-11.42-6.54-25.76,1.52-36.52
				c50.43-67.46,210.43-297.92,152.03-430.84c-5.72-13.03,0.2-28.23,13.22-33.95c13.03-5.72,28.23,0.2,33.95,13.22
				c59.43,135.25-53.13,332.46-128.92,442.06c172.91-40.16,294.95-111.79,354.51-208.59c57.47-93.4,38.97-180.35,31.94-204.77
				c-3.94-13.67,3.95-27.95,17.62-31.89c13.66-3.95,27.95,3.95,31.89,17.62c10.92,37.88,29.11,137.69-37.57,246.04
				c-73.77,119.89-220.71,201.41-436.72,242.29C1407.19,3971.41,1405.14,3971.59,1403.11,3971.59z M1399.67,3920.39
				c-0.01,0-0.02,0-0.03,0.01C1399.65,3920.39,1399.65,3920.39,1399.67,3920.39z"/>
		</g>
		<g>
			<path style="fill:#FFFFFF;" d="M3676.64,2351.7c0,0-101.12,643.25-934.25,1040.59c-709.79,338.47-1200.52,171.71-1200.52,171.71
				c-99.7-111.17-172.1-242.76-213.19-384.13c-23.83-82.12-37.1-167.53-38.97-254.29c0,0,108.98-204.05,404.87-410.41
				c10.18-7.08,20.61-14.23,31.24-21.32c115.55-77.16,257.57-153.74,430.19-219.05c40.71-15.46,83.15-30.21,127.34-44.25
				c1.74-0.58,3.48-1.1,5.22-1.61c178.28-56.23,341.43-84.44,488.22-93.84c4.7-0.32,9.34-0.58,13.98-0.84
				C3357.31,2102.57,3676.64,2351.7,3676.64,2351.7z"/>
		</g>
		<g>
			<path style="fill:#EC1C24;" d="M3251.84,3057.82c-55.35-331-180.07-646.69-365.9-926.22c511.65-3.42,798.16,220.11,798.16,220.11
				S3627.69,2710.63,3251.84,3057.82z"/>
		</g>
		<g style="opacity:0.6;">
			<g>
				<path style="fill:#FFFFFF;" d="M3673.49,2391.62c7.95-29.87,10.61-46.72,10.61-46.72s-286.5-223.53-798.16-220.11
					c12,18.05,23.73,36.25,35.21,54.59C3354.86,2185.33,3618.9,2353.36,3673.49,2391.62z"/>
			</g>
		</g>
		<g>
			<path style="fill:#371A45;" d="M3234.29,3109.1l-7.87-47.03c-55.12-329.6-176.9-637.86-361.95-916.2l-26.4-39.71l47.68-0.32
				c405.57-2.8,673.41,135.88,769.79,195.59c36.29,22.48,53.2,65.28,42.07,106.5c-29.56,109.44-130.46,393.69-428.3,668.82
				L3234.29,3109.1z M2933.67,2157.71c165.77,260.23,278.34,545.21,335.17,848.42c261.36-255.4,351.81-510.82,379.03-611.64
				c5.15-19.07-2.67-38.87-19.46-49.27C3539.63,2290.22,3299,2165.55,2933.67,2157.71z"/>
		</g>
		<g>
			<path style="fill:#371A45;" d="M1878.82,3630.85c-210.38,0-332.61-40.72-337.75-42.47l-6.38-2.17l-4.5-5.02
				c-80.52-89.8-143.81-192.2-188.12-304.34c-44.31-112.16-68.08-230.14-70.64-350.68l-0.15-6.74l3.18-5.95
				c2.58-4.82,64.89-119.73,220.98-265.01c143.12-133.2,395.94-318.09,787.6-442.46c205.35-65.21,408.13-98.92,602.72-100.18
				l13.92-0.09l7.7,11.59c188.64,283.75,312.94,597.94,369.46,933.84l5.12,13.88l-12.62,11.74
				c-142.92,132.06-313.99,246.05-508.46,338.78c-370.92,176.89-681.84,214.69-877.36,215.25
				C1881.96,3630.84,1880.37,3630.85,1878.82,3630.85z M1563.84,3541.5c27.26,8.05,142.83,38.83,322.3,37.81
				c189.68-0.88,491.57-38.06,852.57-210.22c185.13-88.28,348.37-196.15,485.39-320.7c-55.39-319.87-173.73-619.45-351.93-890.87
				c-185.16,2.71-378.03,35.54-573.53,97.62c-686.33,217.94-944.57,624.5-975.52,677.03c3.2,111.94,25.68,221.5,66.87,325.76
				C1431.17,3362.16,1489.65,3457.54,1563.84,3541.5z"/>
		</g>
		<g>
			<path style="fill:#371A45;" d="M1417.82,3608.58c-50.58,0-98.77-23.51-129.91-64.63c-93.69-123.69-151.75-270.64-167.88-424.97
				c-6.25-59.76,20.72-117.91,70.38-151.75l92.29-62.89c11.77-8,27.79-4.97,35.8,6.78c8.01,11.76,4.97,27.79-6.78,35.8l-92.29,62.89
				c-33.98,23.15-52.42,62.93-48.15,103.81c15.16,144.98,69.69,283.02,157.71,399.22c24.82,32.77,65.47,49.19,106.1,42.88
				l110.36-17.17c14.06-2.13,27.23,7.44,29.42,21.5c2.19,14.06-7.44,27.23-21.5,29.42L1443,3606.63
				C1434.59,3607.93,1426.17,3608.58,1417.82,3608.58z"/>
		</g>
		<g style="opacity:0.35;">
			
				<ellipse transform="matrix(0.7071 -0.7071 0.7071 0.7071 -1210.4448 2687.926)" style="fill:#371A45;" cx="2639.39" cy="2805.1" rx="354.39" ry="354.39"/>
		</g>
		<g>
			<circle style="fill:#EC1C24;" cx="2647.23" cy="2761.3" r="318.69"/>
		</g>
		<g style="opacity:0.6;">
			<g>
				<path style="fill:#FFFFFF;" d="M2960.67,2710.26c-2.17-6.91-4.6-13.75-7.28-20.57c-64.64-163.68-249.79-243.94-413.47-179.3
					c-144.31,56.99-223.78,207.59-196.28,354.61c-50.77-158.47,29.52-331.28,186.47-393.3c163.73-64.65,348.83,15.62,413.53,179.34
					C2951.33,2670.55,2956.98,2690.39,2960.67,2710.26z"/>
			</g>
		</g>
		<g style="opacity:0.35;">
			<path style="fill:#371A45;" d="M2764.29,3057.69c-163.65,64.64-348.8-15.56-413.47-179.27c-20.32-51.48-26.3-105.09-19.86-156.41
				c3.56,23.28,9.73,46.49,18.75,69.36c64.67,163.71,249.78,244,413.5,179.33c112.23-44.35,185.23-145.39,199.13-257.2
				C2984.3,2857.12,2905.19,3002.01,2764.29,3057.69z"/>
		</g>
		<g>
			<path style="fill:#371A45;" d="M2647.15,3105.94c-46.53,0-92.99-9.55-136.96-28.62c-84.41-36.61-149.52-103.89-183.32-189.46
				c-33.81-85.57-32.26-179.18,4.34-263.59c36.61-84.41,103.89-149.51,189.46-183.32c85.57-33.8,179.18-32.26,263.59,4.34
				c84.41,36.61,149.51,103.89,183.32,189.46c33.81,85.57,32.26,179.18-4.34,263.59c-36.61,84.41-103.89,149.52-189.46,183.32l0,0
				C2732.79,3097.86,2689.94,3105.94,2647.15,3105.94z M2647.29,2468.22c-36.39,0-72.82,6.87-107.69,20.65
				c-72.77,28.75-129.99,84.11-161.12,155.9c-31.13,71.78-32.44,151.39-3.69,224.16c28.75,72.77,84.11,129.99,155.9,161.12
				c71.79,31.13,151.4,32.43,224.16,3.69l0,0c72.77-28.75,129.99-84.11,161.12-155.9c31.13-71.79,32.44-151.39,3.69-224.16
				c-28.75-72.77-84.11-129.99-155.9-161.12C2726.37,2476.34,2686.86,2468.22,2647.29,2468.22z"/>
		</g>
		<g>
			
				<ellipse transform="matrix(0.7071 -0.7071 0.7071 0.7071 -1173.0769 2680.7058)" style="fill:#6BD6F0;" cx="2649.36" cy="2756.38" rx="202.74" ry="202.74"/>
		</g>
		<g style="opacity:0.3;">
			<g>
				<path style="fill:#FFFFFF;" d="M2723.85,2944.97c-104.15,41.14-221.9-9.95-263.04-114.1c-8.93-22.54-13.52-45.77-14.12-68.69
					c0.74,2.13,1.54,4.22,2.37,6.38c41.14,104.15,158.89,155.25,263.04,114.1c81.61-32.22,130.61-111.47,128.23-194.35
					C2876.97,2790.82,2825.84,2904.66,2723.85,2944.97z"/>
			</g>
		</g>
		<g style="opacity:0.35;">
			<path style="fill:#371A45;" d="M2854.3,2766.85c-1.15-3.28-2.31-6.56-3.61-9.84c-41.14-104.15-158.89-155.25-263.04-114.1
				c-78.39,30.94-126.74,105.36-128.24,184.64c-34.26-101.64,16.85-213.37,117.72-253.21c104.09-41.11,221.87,9.89,263.01,114.04
				C2850.28,2714.16,2854.88,2740.78,2854.3,2766.85z"/>
		</g>
		<g>
			<path style="fill:#371A45;" d="M2649.31,2985.01c-30.87,0-61.68-6.34-90.86-18.99c-56-24.28-99.19-68.92-121.61-125.69
				c-46.29-117.18,11.38-250.18,128.57-296.48c117.18-46.3,250.19,11.38,296.48,128.57c46.29,117.19-11.38,250.19-128.57,296.48
				C2706.12,2979.65,2677.69,2985.01,2649.31,2985.01z M2649.15,2579.4c-21.6,0-43.54,3.98-64.82,12.39
				c-90.76,35.86-135.43,138.86-99.57,229.63c17.37,43.96,50.82,78.54,94.19,97.34c43.37,18.82,91.47,19.6,135.43,2.23l0,0
				c90.76-35.86,135.43-138.86,99.58-229.63C2786.51,2621.87,2719.69,2579.4,2649.15,2579.4z"/>
		</g>
		<g style="opacity:0.2;">
			<path style="fill:#FFFFFF;" d="M3311.01,2321.7c-1.54-48.4-102.09-86.33-158.99-85.89c-58.93,0.46-94.38,10.61-94.63,39.14
				c-0.35,39.83,45.54,53.87,100.1,55.94C3196.07,2332.35,3312.91,2381.43,3311.01,2321.7z"/>
		</g>
		<g style="opacity:0.2;">
			<path style="fill:#FFFFFF;" d="M3458.7,2382.84c-3.16-41.95-53.88-81.04-81.48-84.2c-28.59-3.28-45.3,3.29-44,27.94
				c1.81,34.42,24.8,49.43,51.39,54.63C3403.41,2384.87,3462.6,2434.62,3458.7,2382.84z"/>
		</g>
		<g>
			<g style="opacity:0.35;">
				<path style="fill:#371A45;" d="M1535.77,3516.36c0,0,490.72,166.76,1200.47-171.67c720.78-343.74,893.63-871.46,927.15-1007.59
					c3.41,2.28,6.4,4.33,8.98,6.12c-10.45-7.27-27.8-18.77-51.9-32.77c-97.86,222.4-330.82,580.23-867.38,836.12
					c-335.14,159.81-621.43,206.98-830.28,212.25c-266.74,6.74-506.57-164.44-582.12-420.35c-0.42-1.41-0.83-2.82-1.24-4.24
					c-2.95-10.16-5.69-20.39-8.31-30.65c-1.36-4.24-2.79-8.44-4.06-12.73c-0.42-1.41-0.83-2.82-1.24-4.24
					c-0.44-1.51-0.82-3.04-1.25-4.56c0.32-0.47,0.62-0.91,0.94-1.39c0,0,0,0,0,0c-19.47,28.39-28.32,44.95-28.32,44.95
					c1.64,76.62,12.21,152.18,31.07,225.35C1370.17,3285.24,1440.45,3410.11,1535.77,3516.36z"/>
			</g>
		</g>
		<g>
			<path style="fill:#EC1C24;" d="M1500.96,3341.44c-146.11,57.68-335.67-1.14-335.67-1.14s0.37-0.66,1.09-1.82
				c11.01-18.7,105.95-174.17,243.11-228.43c131.65-52.04,275.05,1.38,300.59,11.78c2.62,1.08,3.99,1.69,3.99,1.69
				S1646.1,3284.18,1500.96,3341.44z"/>
		</g>
		<g style="opacity:0.6;">
			<g>
				<path style="fill:#FFFFFF;" d="M1720.91,3130.29c0,0-4.15,9.79-12.54,25.34c-48.86-16.91-169.78-49.36-282.2-4.9
					c-110.31,43.62-193.31,152.72-227.34,203.43c-16.9-4-26.75-7.04-26.75-7.04s0.41-0.67,1.1-1.85
					c11.03-18.67,105.97-174.14,243.15-228.41c131.64-52.06,275,1.37,300.54,11.77C1719.54,3129.71,1720.91,3130.29,1720.91,3130.29
					z"/>
			</g>
		</g>
		<g style="opacity:0.35;">
			<path style="fill:#371A45;" d="M1500.96,3341.44c-146.11,57.68-335.67-1.14-335.67-1.14s0.37-0.66,1.09-1.82l543.7-216.66
				c2.62,1.08,3.99,1.69,3.99,1.69S1646.1,3284.18,1500.96,3341.44z"/>
		</g>
		<g>
			<path style="fill:#371A45;" d="M1350.52,3392.66c-101.71,0-187.51-26.09-192.87-27.75l-30.6-9.5l15.85-27.85
				c4.19-7.36,104.42-181.07,257.17-241.47c153.41-60.65,317.56,10.8,324.46,13.87l23.12,10.28l-9.86,23.3
				c-2.95,6.97-73.93,171.31-227.39,231.88C1458.71,3385.83,1402.53,3392.66,1350.52,3392.66z M1206.14,3324.14
				c58.83,13.17,184.59,33.13,285.36-6.64c100.83-39.8,162.38-134.92,186.77-179.8c-48.56-16.04-158.79-43.4-259.25-3.68
				C1318.02,3173.94,1240.02,3274.35,1206.14,3324.14z M1165.29,3340.3h0.07H1165.29z"/>
		</g>
		<g style="opacity:0.25;">
			<path style="fill:#371A45;" d="M2227,2815.83c20.29,29.11,160.44,265.56,47.66,359.53c-98.74,82.31-280.95,68.79-376.98-60.61
				c-63.44-85.6-76.32-184.27-72.72-259.76c4.25-88.18,20.03-172.29-23.96-238.31c-23.44-35.3-62.09-66.66-106.4-101.51
				c10.18-7.08,20.61-14.23,31.24-21.32c115.55-77.16,257.57-153.74,430.19-219.05c33.69,16.23,65.95,37.1,93.07,63.89
				c106.92,106.08,109.88,319.02,37.29,405.32C2257.78,2778.03,2227,2815.83,2227,2815.83z"/>
		</g>
		<g>
			<path style="fill:#FFFFFF;" d="M2291.41,2751.42c20.29,29.11,160.44,265.56,47.66,359.53c-98.74,82.31-280.95,68.79-376.98-60.61
				c-63.44-85.6-76.32-184.27-72.72-259.76c4.25-88.18,20.03-172.29-23.96-238.31c-50.05-75.23-245.33-103.31-342.46-214.67
				c-57.26-65.57-87.92-184.66-82.7-330.55c1.61-44.31,6.51-91.14,15.01-139.7c36.07-206.24,136.93-443.45,322.69-653.49
				c0,0,73.81,295.25,151.17,557.59c53.91,182.86,109.56,349.74,142.99,389.22c4.44,5.28,8.5,8.24,12.11,8.76
				c43.99,6.12,87.15,18.42,128.05,37.1c36.58,16.75,71.94,38.77,101.25,67.76c106.92,106.08,109.88,319.02,37.29,405.32
				C2322.19,2713.62,2291.41,2751.42,2291.41,2751.42z"/>
		</g>
		<g style="opacity:0.25;">
			<path style="fill:#371A45;" d="M2375.07,3057.04c-6.63,20.68-18.1,39.03-36,53.91c-98.74,82.31-280.95,68.79-376.98-60.61
				c-63.44-85.54-76.32-184.27-72.72-259.76c4.25-88.18,19.97-172.29-23.96-238.25c-50.05-75.23-245.33-103.38-342.53-214.67
				c-57.2-65.57-87.85-184.79-82.64-330.61c0-0.64,0.06-1.35,0.06-2c0.19-4.9,0.45-9.79,0.71-14.75c0.26-4.51,0.51-9.08,0.84-13.72
				c0.13-2.06,0.26-4.19,0.45-6.31c0.84-10.89,1.8-21.9,3.03-33.04c0.58-5.28,1.22-10.63,1.87-16.04c0.45-3.74,0.97-7.54,1.48-11.34
				c0.39-3.16,0.84-6.31,1.29-9.47c0.71-4.96,1.48-9.92,2.25-14.94c0.9-5.67,1.87-11.4,2.83-17.13c0.06-0.32,0.13-0.64,0.19-0.97
				c5.73-6.44,9.79-10.05,9.79-10.05s19.45,8.82,60.99,19.58c66.02,17.13,187.82,39.29,375.95,39.03l-2.96-97.58
				c-0.64-20.8,11.79-39.16,30.08-46.89c4.32-1.87,9.02-3.09,13.98-3.61l116.9-12.49l169.01,409.19l-156.9-3.87l-118-2.9
				c-25.38-1.61-45.41-22.29-46.18-47.73l-1.48-49.01c-103.25,23.12-274.12,29.18-384.71-7.28c8.24,101.89,36.65,184.21,80.7,234.71
				c97.13,111.36,242.76,51.59,341.3,166.5c61.57,71.88,29.37,198.31,25.12,286.49c-3.61,75.49-32.78,186.21,30.59,271.74
				C2083.3,3126.28,2264.67,3116.24,2375.07,3057.04z"/>
		</g>
		<g style="opacity:0.25;">
			<path style="fill:#371A45;" d="M2699.05,1214.38c-63.31,87.02-146.72,158.51-243.27,207.59c-46.31,23.51-95.65,41.93-147.3,54.43
				c-53.27,12.95-108.91,19.58-166.17,19.19c-101.8-0.7-198.19-23.66-284.64-64.25c-86.22-40.48-189.32-1.87-228.59,84.9
				c-56.51,124.86-89.66,248.5-103.03,360.65c-41.54-10.76-60.99-19.58-60.99-19.58s-4.06,3.61-9.79,10.05
				c36.07-206.24,136.93-443.45,322.69-653.49l1.93,19.77c24.67-33.69,40.38-52.49,40.38-52.49l615.75,31.43
				c0,0,2.38,32.46,7.34,86.31C2519.73,1278.66,2612.29,1250.44,2699.05,1214.38z"/>
		</g>
		<g>
			<path style="fill:#371A45;" d="M2096.55,2162.61c33.44-0.44,67.05,4.98,99.47,14.81c32.38,9.88,63.93,23.75,92.96,43.1
				c14.47,9.68,28.38,20.51,41.35,32.61c13.04,12.36,24.78,26.2,35.08,40.73c20.56,29.25,34.85,61.82,44.76,95.11
				c9.56,33.43,14.95,67.71,16.05,102.14c1.38,34.41-1.22,69.06-9.03,103.2c-7.9,33.98-20.29,68.26-43.94,98.38l-61.9,75l1.16-31.02
				c5.19,7.6,9.19,14.26,13.39,21.3c4.07,6.97,8.05,13.94,11.85,20.98c7.64,14.07,14.83,28.35,21.58,42.87
				c13.53,29.02,25.24,59.08,34.31,90.45c8.81,31.42,15.27,64.31,14.45,99.16c-0.47,17.35-2.59,35.23-8.33,52.84
				c-5.6,17.56-14.68,34.71-27.02,49.2l-4.63,5.43c-1.6,1.74-3.39,3.29-5.09,4.94c-3.45,3.1-6.91,6.81-10.42,9.13
				c-7.06,5.1-13.91,10.6-21.24,15.24c-7.53,4.26-15,8.72-22.66,12.71l-23.72,10.19c-32.26,11.78-66.3,17.09-100.05,16.87
				c-33.78-0.23-67.38-6.02-99.32-16.89c-32.06-10.64-61.88-27.69-88.46-48.49c-6.65-5.23-13.41-10.34-19.25-16.49
				c-5.96-5.99-12.35-11.6-17.89-17.97l-16.16-19.52c-5.31-6.55-9.68-13.53-14.54-20.28c-18.16-27.81-32.59-57.95-43.28-89.18
				c-10.33-31.34-17.35-63.67-20.44-96.22c-1.74-16.26-2.43-32.59-2.46-48.88c-0.07-8.15,0.24-16.29,0.52-24.42l1.36-23.59
				c2-31.25,4.73-61.68,4.79-91.01c-0.04-29.2-2.65-57.47-12.3-81.88c-1.11-3.1-2.29-6.16-3.82-9.02c-1.5-2.87-2.63-5.96-4.38-8.69
				l-4.99-8.32c-1.77-2.41-3.1-4.52-5.11-6.74c-7.56-8.81-18.05-17.17-29.77-24.74c-23.67-15.16-51.24-27.86-79.1-40.54
				c-55.86-25.34-114.77-50.25-168.48-88.45c-26.69-19.28-52-41.67-72.42-69.94c-20.12-27.86-34.12-58.44-44.71-89.46
				c-10.54-31.09-17.64-62.81-22.68-94.63c-4.55-31.86-7.1-63.81-7.87-95.71c-1.18-63.78,4.53-127.2,14.97-189.6
				c21.66-124.71,62.84-245.26,118.86-358.1c28.51-56.11,57.7-112.24,93.72-164.08c36.26-51.47,77.37-100.14,129.79-136.98
				c3.99-2.8,9.5-1.84,12.3,2.15c1.96,2.79,2.08,6.33,0.61,9.16l-0.04,0.07c-29.3,56.04-64.12,105.35-97.09,156.39
				c-33.22,50.66-66.59,101.56-93.14,156.22c-53.96,108.66-93.52,224.7-114.21,343.85c-9.96,59.57-15.35,119.9-14.24,179.83
				c0.73,29.95,3.12,59.73,7.3,89.12c4.64,29.26,11.14,58.08,20.47,85.58c9.32,27.44,21.56,53.67,37.75,76.02
				c15.83,22.04,37.27,41.39,60.66,58.22c47.35,33.8,103.11,57.85,159.74,83.4c28.36,12.98,57.29,26.02,85.8,44.2
				c14.18,9.24,28.42,20.01,41.07,34.67c3.15,3.53,6.15,7.88,8.86,11.74l6.95,11.56c2.36,3.84,4.05,8,6.07,12
				c2.06,4,3.7,8.14,5.23,12.32c6.44,16.6,10.51,33.78,12.68,50.62c2.23,16.85,3.2,33.57,3.06,49.81c-0.1,32.56-2.98,63.8-4.9,94.26
				l-1.31,22.72c-0.25,7.32-0.54,14.63-0.46,21.95c0.04,14.63,0.64,29.25,2.2,43.74c2.74,29.04,9.01,57.53,18,84.92
				c18.74,54.24,49.86,105.45,94.2,139.44c22.01,17.19,46.67,31.46,73.42,40.27c26.61,9.03,54.68,13.85,82.72,14.05
				c28.02,0.2,56.04-4.24,81.95-13.69l18.9-8.13c6.02-3.18,11.82-6.71,17.79-9.99c5.72-3.61,10.9-7.93,16.43-11.79
				c3-1.93,4.66-4.11,7.01-6.12c1.08-1.04,2.27-1.99,3.27-3.09l2.85-3.43c15.49-17.98,22.79-42.91,23.18-70.08
				c0.72-27.11-4.58-55.71-12.49-83.72c-8.11-28.06-18.87-55.83-31.48-82.86c-6.29-13.52-13.02-26.88-20.13-39.99
				c-3.54-6.57-7.23-13.02-10.96-19.41c-3.7-6.25-7.73-12.82-11.26-17.99l-11.07-16.21l12.22-14.81l61.56-74.58
				c16.51-20.87,27.51-48.69,33.8-77.51c12.5-58.11,8.38-121.22-9.33-178.18c-9.01-28.45-21.24-55.7-37.52-79.67
				c-8.07-12.07-17.19-23.08-27.18-33.41c-10.18-10.46-21.41-20.12-33.41-28.99c-23.93-17.79-50.42-33.47-78.21-47.14
				c-27.82-13.66-56.96-25.23-87.32-36.08l-0.06-0.02c-4.53-1.62-6.9-6.61-5.28-11.15
				C2089.71,2164.87,2093.02,2162.66,2096.55,2162.61z"/>
		</g>
		<g>
			<path style="fill:#371A45;" d="M1891.69,2640.71c-9.52,0-17.81-7.04-19.13-16.74c-30.06-222.34,101.61-327.46,159.62-362.33
				c96.16-57.81,212.05-63.21,281.81-13.13c8.67,6.22,10.65,18.29,4.43,26.97c-6.22,8.67-18.29,10.65-26.97,4.43
				c-56.68-40.7-157.35-34.45-239.36,14.85c-51.45,30.93-168.22,124.43-141.23,324.03c1.43,10.57-5.98,20.31-16.56,21.74
				C1893.43,2640.65,1892.55,2640.71,1891.69,2640.71z"/>
		</g>
		<g>
			<path style="fill:#371A45;" d="M2326.85,2748.19c-2.72,2.59-4.56,4.13-6.82,6.05c-2.14,1.85-4.37,3.5-6.57,5.19
				c-4.38,3.4-8.95,6.43-13.56,9.42c-9.2,5.99-18.98,11.03-28.94,15.7c-20.07,9.02-41.64,15.44-63.96,17.94
				c-22.22,2.43-45.38,1.49-66.59-5.86c-21.17-7.08-40.08-19.62-53.31-36.35c21.12,3.68,40,6.51,58.47,5.6
				c9.14-0.1,18.09-1.02,26.88-2.35c8.79-1.24,17.48-3.02,25.97-5.71c17.02-5.02,33.52-12.14,49.4-20.72
				c8.03-4.1,15.76-8.85,23.51-13.52l11.37-7.32l10.43-7.03l1.58-1.07c11.8-7.95,27.8-4.83,35.75,6.97
				C2337.59,2725.71,2335.81,2739.68,2326.85,2748.19z"/>
		</g>
		<g>
			<path style="fill:#FFFFFF;" d="M2819.97,907.71L2819.97,907.71c-7.66,0.49-14.26-5.32-14.75-12.98l-25.54-399.45
				c-0.49-7.66,5.32-14.26,12.98-14.75h0c80.35-5.14,149.65,55.84,154.79,136.19l8.71,136.21
				C2961.29,833.27,2900.32,902.57,2819.97,907.71z"/>
			<path style="fill:#371A45;" d="M2819.08,910.5c-8.71,0-16.05-6.79-16.62-15.6l-25.53-399.45c-0.58-9.17,6.4-17.1,15.56-17.69
				c81.78-5.18,152.5,57.03,157.72,138.77l8.71,136.22c2.53,39.6-10.51,77.81-36.72,107.6c-26.21,29.79-62.45,47.59-102.05,50.12
				l0,0C2819.79,910.49,2819.43,910.5,2819.08,910.5z M2819.97,907.71h0.07H2819.97z M2802.16,482.98c-3.1,0-6.21,0.1-9.32,0.3
				c-2.97,0.19-5.68,1.52-7.65,3.75c-1.96,2.23-2.94,5.1-2.75,8.07l25.53,399.45c0.39,6.13,5.72,10.88,11.82,10.4
				c38.12-2.44,73.02-19.57,98.25-48.26c25.24-28.68,37.79-65.47,35.35-103.6l-8.71-136.22c-2.44-38.12-19.57-73.02-48.26-98.25
				C2870.1,495.46,2836.93,482.98,2802.16,482.98z"/>
		</g>
		<g style="opacity:0.35;">
			<path style="fill:#371A45;" d="M2952.07,689.05l4.1,63.89c5.12,80.32-55.84,149.64-136.21,154.8
				c-7.66,0.5-14.26-5.36-14.76-13.01l-6.82-106.19c2.46,4.7,7.52,7.74,13.14,7.42l9.47-0.63
				C2884.49,791.28,2935.92,747.13,2952.07,689.05z"/>
		</g>
		<g>
			<path style="fill:#371A45;" d="M2819.06,933.5c-20.72,0-38.21-16.16-39.56-37.12l-25.53-399.46
				c-1.39-21.83,15.23-40.72,37.05-42.11c45.69-2.95,89.86,12.13,124.26,42.4c34.4,30.27,54.96,72.12,57.88,117.85l8.71,136.22
				c2.92,45.73-12.14,89.86-42.4,124.26c-30.27,34.4-72.12,54.96-117.85,57.88c0,0,0,0-0.01,0
				C2820.75,933.48,2819.9,933.5,2819.06,933.5z M2819.97,907.71h0.07H2819.97z M2806.18,506.05l23.95,374.61
				c60.13-9.83,104.28-64.04,100.32-126.09l-8.71-136.22c-2.05-31.99-16.43-61.28-40.5-82.45
				C2860.17,517.36,2833.88,506.98,2806.18,506.05z"/>
		</g>
		<g>
			<path style="fill:#FFFFFF;" d="M1474.16,564.81L1474.16,564.81c7.66-0.49,14.26,5.32,14.75,12.98l25.54,399.45
				c0.49,7.66-5.32,14.26-12.98,14.75h0c-80.35,5.14-149.65-55.84-154.79-136.19l-8.71-136.21
				C1332.84,639.24,1393.81,569.94,1474.16,564.81z"/>
			<path style="fill:#371A45;" d="M1491.96,995.06c-36.11,0-70.56-12.96-97.92-37.03c-29.79-26.21-47.59-62.45-50.12-102.05
				l-8.71-136.22c-2.53-39.6,10.51-77.81,36.72-107.6c26.21-29.79,62.45-47.59,102.05-50.12l0,0c9.28-0.47,17.1,6.4,17.69,15.56
				l25.53,399.45c0.28,4.44-1.18,8.72-4.12,12.07c-2.94,3.34-7,5.34-11.44,5.62C1498.41,994.96,1495.18,995.06,1491.96,995.06z
				 M1474.34,567.56c-38.12,2.44-73.02,19.57-98.25,48.26c-25.24,28.68-37.79,65.47-35.35,103.6l8.71,136.22
				c2.43,38.12,19.57,73.02,48.26,98.25c28.68,25.23,65.51,37.84,103.6,35.35c2.97-0.19,5.68-1.52,7.65-3.75
				c1.97-2.24,2.94-5.1,2.75-8.07l-25.53-399.45C1485.77,571.84,1480.48,567.14,1474.34,567.56L1474.34,567.56z"/>
		</g>
		<g style="opacity:0.35;">
			<path style="fill:#371A45;" d="M1507.4,866.42l7.07,110.82c0.5,7.66-5.36,14.26-13.01,14.76
				c-42.17,2.68-81.34-12.83-109.76-39.83c-25.66-24.39-42.55-58.18-45-96.33l-3.67-57.4c26.03,48.9,79.09,80.73,138,76.98
				l14.58-0.93C1500.92,874.13,1505.26,870.9,1507.4,866.42z"/>
		</g>
		<g>
			<path style="fill:#371A45;" d="M1492.05,1018.06c-89.64,0-165.28-69.91-171.08-160.61l-8.71-136.22
				c-2.92-45.73,12.14-89.86,42.4-124.26c30.27-34.4,72.12-54.96,117.85-57.88c0,0,0,0,0.01,0c21.85-1.42,40.7,15.22,42.1,37.04
				l25.53,399.46c0.68,10.57-2.8,20.77-9.8,28.73c-7,7.96-16.68,12.71-27.25,13.38C1499.41,1017.94,1495.72,1018.06,1492.05,1018.06
				z M1464,591.86c-60.13,9.83-104.28,64.04-100.32,126.09l8.71,136.22c2.05,31.99,16.43,61.28,40.5,82.45
				c21.07,18.54,47.37,28.93,75.06,29.85L1464,591.86z"/>
		</g>
		<g>
			
				<ellipse transform="matrix(0.7071 -0.7071 0.7071 0.7071 108.2763 1733.9069)" style="fill:#FFFFFF;" cx="2147.15" cy="736.25" rx="682.09" ry="682.09"/>
			<path style="fill:#371A45;" d="M2147.23,1421.1c-1.68,0-3.3-0.01-4.98-0.02c-377.62-2.7-682.64-312.11-679.93-689.73
				c2.69-375.94,309.43-679.95,684.75-679.95c1.68,0,3.3,0.01,4.98,0.02c182.92,1.31,354.39,73.77,482.82,204.04
				s198.43,302.76,197.12,485.69C2829.29,1117.09,2522.55,1421.1,2147.23,1421.1z M2147.01,56.93
				c-179.6,0-348.73,69.33-476.77,195.55c-129.22,127.39-201.1,297.47-202.4,478.92c-1.3,181.45,68.14,352.55,195.53,481.77
				c127.39,129.22,297.47,201.1,478.92,202.4c181.28,1.25,352.55-68.14,481.77-195.53c129.22-127.39,201.1-297.47,202.4-478.92
				c1.3-181.45-68.14-352.55-195.53-481.77c-127.39-129.22-297.47-201.1-478.92-202.4C2150.34,56.93,2148.67,56.93,2147.01,56.93z"
				/>
		</g>
		<g style="opacity:0.35;">
			<path style="fill:#371A45;" d="M2823.36,646.67c4.12,30.87,6.1,62.4,5.87,94.47c-2.75,376.69-310.29,679.87-686.97,677.21
				c-376.69-2.74-679.87-310.29-677.21-686.97c0.07-10.83,0.4-21.67,0.99-32.35c43.61,332.35,326.67,590.02,671.34,592.5
				C2503.24,1294.12,2803.81,1008.23,2823.36,646.67z"/>
		</g>
		<g>
			<path style="fill:#371A45;" d="M2147.29,1444.11c-1.74,0-3.46-0.01-5.2-0.02c-189.07-1.35-366.3-76.25-499.03-210.9
				s-205.09-312.93-203.74-501.99c1.35-189.07,76.25-366.3,210.9-499.03c134.65-132.73,313.06-205.17,501.99-203.74
				c189.07,1.35,366.3,76.25,499.03,210.9c132.74,134.65,205.09,312.93,203.74,502c-1.35,189.07-76.25,366.3-210.9,499.03
				C2510.68,1371.86,2334.42,1444.11,2147.29,1444.11z M2147.02,79.93c-173.52,0-336.93,66.98-460.63,188.93
				c-124.85,123.07-194.3,287.4-195.55,462.7c-1.25,175.31,65.84,340.61,188.91,465.45c123.07,124.85,287.4,194.3,462.7,195.55
				c175.53,1.03,340.61-65.83,465.45-188.91c124.85-123.07,194.3-287.4,195.55-462.7c1.25-175.31-65.84-340.61-188.91-465.46
				c-123.07-124.85-287.4-194.29-462.7-195.54C2150.24,79.94,2148.62,79.93,2147.02,79.93z"/>
		</g>
		<g>
			<path style="fill:#371A45;" d="M2826.91,758.63c1.06,133.47-41.28,257.73-114.56,360.84c-54.94,77.31-282.23,213.64-564.2,218.42
				c-261.44,4.43-500.44-133.08-556.61-209.5c-74.91-101.94-119.23-225.5-120.29-358.98c-2.81-353.2,299.48-502.04,673.85-505.02
				C2519.48,261.42,2824.1,405.43,2826.91,758.63z"/>
		</g>
		<g>
			<path style="fill:#371A45;" d="M2135.5,1353.37c-264.81,0.01-498.56-137.25-556.34-215.88
				c-79.59-108.3-122.22-235.54-123.27-367.95c-1.37-172.42,66.69-305.9,202.3-396.73c118.51-79.38,286.84-122.19,486.8-123.78
				c200.03-1.63,368.95,38.53,488.71,116.01c137.04,88.67,207.21,221.05,208.59,393.47l0,0c1.05,132.42-39.54,260.32-117.41,369.87
				c-53.96,75.93-278.45,219.84-576.46,224.89C2144.11,1353.34,2139.79,1353.37,2135.5,1353.37z M2155.31,279.73
				c-3.44,0-6.78,0.01-10.08,0.04c-199.18,1.58-662.08,52.46-658.6,489.52c1,125.91,41.56,246.93,117.3,349.99
				c52.97,72.07,280.73,203.33,531.84,203.34c4.05,0,8.07-0.03,12.13-0.1c283.53-4.8,502.69-142.68,551.93-211.96
				c74.09-104.25,112.72-225.91,111.72-351.82l0,0C2808.12,328.92,2359.61,279.73,2155.31,279.73z"/>
		</g>
		<g style="opacity:0.7;">
			
				<ellipse transform="matrix(0.1705 -0.9854 0.9854 0.1705 1459.9871 3159.0532)" style="fill:#FFFFFF;" cx="2606.23" cy="712.4" rx="120.71" ry="87.47"/>
		</g>
		<g style="opacity:0.7;">
			
				<ellipse transform="matrix(0.305 -0.9524 0.9524 0.305 831.2437 3043.7441)" style="fill:#FFFFFF;" cx="2500.99" cy="952.36" rx="55.4" ry="47.55"/>
		</g>
		<g style="opacity:0.35;">
			<path style="fill:#111A28;" d="M2692.46,430.18c83.49,78.41,133.3,186.58,134.45,328.44c1.06,133.5-41.3,257.75-114.53,360.86
				c-54.96,77.3-282.27,213.64-564.23,218.44c-99.56,1.71-195.83-17.19-280.04-45.5c346.47-13.3,623.34-180.61,691.47-276.49
				c93.02-130.87,146.75-288.6,145.38-457.96C2704.61,512.7,2700.28,470.14,2692.46,430.18z"/>
		</g>
		<g>
			<path style="fill:#371A45;" d="M1540.26,483.65l-40.45-31.92l19,15.21l-20.23-13.51c119.75-179.29,353.73-283.44,641.95-285.74
				c286.41-2.16,521.49,94.69,646.05,266.01c7.21,9.46,7.14,23.01-0.91,32.39c-9.26,10.81-25.49,12.09-36.28,2.83
				c-1.53-1.31-3-2.88-4.18-4.51c-114.57-157.96-334.88-247.47-604.26-245.2c-270.88,2.16-489.4,97.96-599.52,262.83
				C1541.06,482.6,1540.67,483.13,1540.26,483.65z M1519.93,467.83h0.07H1519.93z"/>
		</g>
		<g style="opacity:0.7;">
			<path style="fill:#FFFFFF;" d="M1625.16,978.32c0,0-112.16-347.56,74.51-487.91s456.85-141.93,450.67-124.56
				c0,0-298.52,74.79-413.66,312.17C1647.89,861.08,1625.16,978.32,1625.16,978.32z"/>
		</g>
		<g>
			<path style="fill:#FFFFFF;" d="M2577.54,1735.91l18.45,142.42l14.38,110.79c3.89,30.1-16.05,58.08-45.85,64.14
				c-19.17,3.92-42.97,8.5-70.37,13.23c-97.5,16.82-240.93,35.63-385.12,33.42c-30.99-0.49-56.03-25.43-56.84-56.44l-7.44-294.08
				c-0.84-33.12,26.21-60.18,59.32-59.34c100.16,2.58,299.75,5.88,410.94-4.36C2545.96,1682.84,2573.57,1705.07,2577.54,1735.91z"/>
		</g>
		<g>
			<path style="fill:#FFFFFF;" d="M2099.64,1690.12l-116.91,12.47c-25.63,2.73-44.83,24.75-44.04,50.52l8.9,291.74
				c0.78,25.44,20.79,46.1,46.19,47.69l108.02,6.76"/>
		</g>
		<g style="opacity:0.25;">
			<path style="fill:#371A45;" d="M2099.64,1690.12l-116.91,12.47c-25.63,2.73-44.83,24.75-44.04,50.52l8.9,291.74
				c0.78,25.44,20.79,46.1,46.19,47.69l108.02,6.76"/>
		</g>
		<g>
			<path style="fill:#371A45;" d="M2132.77,2122.85c-8.03,0-16.06-0.06-24.11-0.19c-43.31-0.67-78.1-35.2-79.2-78.61l-7.44-294.09
				c-0.56-22.31,7.82-43.29,23.6-59.07c15.77-15.77,36.74-24.08,59.04-23.58c105.82,2.7,299.56,5.73,408.27-4.28
				c43.24-3.97,81.57,26.74,87.17,69.94l32.83,253.2c5.41,41.73-22.63,80.99-63.84,89.38
				C2480.61,2093.56,2309.5,2122.85,2132.77,2122.85z M2102.57,1712.77c-9.37,0-18.14,3.63-24.79,10.29
				c-6.88,6.88-10.53,16.03-10.29,25.75l7.44,294.09c0.48,18.93,15.6,33.99,34.43,34.28c180.77,2.71,359.96-27.75,450.64-46.21
				c17.95-3.66,30.17-20.77,27.81-38.96l-32.83-253.2c-2.44-18.83-19.02-32.2-37.89-30.49c-111.03,10.22-306.79,7.18-413.59,4.46
				l0,0C2103.19,1712.78,2102.88,1712.77,2102.57,1712.77z"/>
		</g>
		<g>
			<path style="fill:#371A45;" d="M2101.82,2122.05c-0.48,0-0.96-0.01-1.45-0.04l-108.02-6.77c-37.34-2.34-66.36-32.3-67.5-69.7
				l-8.9-291.74c-1.14-37.43,27.12-69.85,64.36-73.82l116.91-12.47c12.54-1.39,23.7,7.71,25.03,20.2
				c1.34,12.49-7.71,23.69-20.2,25.03l-116.91,12.47c-13.72,1.47-24.14,13.41-23.72,27.21l8.9,291.75
				c0.42,13.78,11.11,24.82,24.87,25.68l108.02,6.77c12.54,0.79,22.06,11.58,21.28,24.12
				C2123.74,2112.79,2113.73,2122.05,2101.82,2122.05z"/>
		</g>
		<g>
			<path style="fill:#371A45;" d="M2348.38,2112.07c-11.96,0-21.98-9.33-22.68-21.42l-8.7-149.01l-75.45-50.89
				c-5.81-3.92-9.49-10.3-9.97-17.29l-12.34-179.46c-0.86-12.53,8.6-23.39,21.13-24.25c12.51-0.85,23.39,8.59,24.25,21.13
				l11.58,168.38l75.57,50.98c5.88,3.96,9.57,10.45,9.99,17.53l9.35,160.24c0.73,12.54-8.84,23.3-21.38,24.03
				C2349.27,2112.05,2348.83,2112.07,2348.38,2112.07z"/>
		</g>
		<g>
			<path style="fill:#22A7F0;" d="M2560.54,1871.93c0.94,9.02-4.17,83.19-4.17,83.19s-23.08,2.4-51.41,5.35
				c-35.4,3.68-67.91-29.99-72.62-75.2c-4.7-45.22,20.18-84.86,55.59-88.54c23.89-2.48,51.41-5.35,51.41-5.35
				S2559.01,1857.23,2560.54,1871.93z"/>
		</g>
		<g>
			<path style="fill:#FFFFFF;" d="M2560.53,1871.94c0.96,9.02-4.13,83.2-4.13,83.2s-0.58,0.06-1.7,0.16
				c1.34-21.41,2.67-46.83,2.14-51.86c-1.5-14.7-21.17-80.54-21.17-80.54s-27.54,2.86-51.41,5.35
				c-24.73,2.54-44.37,22.73-52.37,50.06c-1.66-42.27,22.47-78.08,56.06-81.55c23.88-2.49,51.41-5.35,51.41-5.35
				S2559.03,1857.23,2560.53,1871.94z"/>
		</g>
		<g>
			<path style="fill:#371A45;" d="M2499.74,1980.06c-43.06,0-81.13-39.99-86.62-92.8c-5.8-55.74,26.87-104.98,72.8-109.76l35.9-3.73
				c18.36-1.92,35.35,9.55,40.48,27.25c16.05,55.43,17.11,65.57,17.45,68.91v0c0.28,2.68,0.93,8.94-3.06,70.68
				c-1.2,18.56-15.51,33.43-34.03,35.36l-35.71,3.71C2504.54,1979.94,2502.13,1980.06,2499.74,1980.06z M2525.32,1812.27l-35.4,3.68
				c-24.33,2.53-41.9,33.36-38.37,67.32c3.53,33.96,27.11,60.43,51.4,57.98l35.21-3.66c2.66-41.17,3.35-60.05,3.14-63.79
				C2540.74,1868.76,2536.25,1850.02,2525.32,1812.27z"/>
		</g>
		<g>
			
				<ellipse transform="matrix(0.9946 -0.1035 0.1035 0.9946 -180.1202 273.6302)" style="fill:#22A7F0;" cx="2547.85" cy="1873.25" rx="64.45" ry="82.31"/>
		</g>
		<g>
			<path style="fill:#FFFFFF;" d="M2611.94,1866.59c0.55,5.47,0.71,10.85,0.41,16.1c-9.78-36.88-38.55-62.41-69.65-59.2
				c-31.14,3.28-54.13,34.27-56.01,72.45c-1.36-5.15-2.38-10.53-2.95-16.05c-4.71-45.21,20.21-84.85,55.61-88.5
				C2574.74,1787.69,2607.23,1821.38,2611.94,1866.59z"/>
		</g>
		<g>
			<path style="fill:#371A45;" d="M2550.94,1974.73c-20.53,0-40.28-8.87-56.29-25.45c-16.7-17.3-27.39-41.22-30.11-67.37
				c-2.72-26.14,2.82-51.75,15.61-72.11c13.72-21.87,34.04-35.23,57.2-37.64c23.16-2.43,45.78,6.49,63.72,25.06
				c16.7,17.3,27.39,41.22,30.11,67.37v0c2.72,26.14-2.82,51.75-15.61,72.12c-13.72,21.87-34.04,35.23-57.2,37.64
				C2555.88,1974.6,2553.4,1974.73,2550.94,1974.73z M2544.59,1810.43c-1.09,0-2.17,0.06-3.26,0.17
				c-11.09,1.15-21.19,8.17-28.47,19.75c-8.22,13.08-11.73,29.98-9.9,47.57c1.83,17.59,8.75,33.4,19.48,44.52
				c9.5,9.84,20.86,14.65,31.92,13.47c11.09-1.15,21.2-8.17,28.47-19.75c8.22-13.08,11.73-29.98,9.9-47.57v0
				c-1.83-17.59-8.75-33.4-19.48-44.51C2564.69,1815.19,2554.62,1810.43,2544.59,1810.43z"/>
		</g>
		<g>
			<path style="fill:#FFFFFF;" d="M1465.03,1792.89c0,0,153.8,69.61,519.6,57.05c0,0,67.02,64.22,0,117.28
				c-67.02,53.06-444.19,83.59-544.95-25.13C1375.9,1873.25,1465.03,1792.89,1465.03,1792.89z"/>
		</g>
		<g style="opacity:0.25;">
			<path style="fill:#371A45;" d="M1984.63,1967.25c-66.98,53.01-444.16,83.54-544.96-25.18c-30.34-32.72-26.08-68.02-13.2-96.1
				c3.35,6.05,7.73,12.04,13.2,17.97c100.8,108.72,477.98,78.19,544.96,25.18c7.09-5.67,12.75-11.4,17-17.2
				C2015.67,1895.3,2027.2,1933.5,1984.63,1967.25z"/>
		</g>
		<g>
			<path style="fill:#371A45;" d="M1719.08,2038.08c-85.42,0-231.58-10.94-296.07-80.54c-20.46-22.08-30.21-47.39-28.96-75.22
				c2.59-57.76,53.59-104.37,55.75-106.33l11.05-9.96l13.51,6.12c2.32,1.02,155.98,67.22,509.48,55.05l9.59-0.33l6.93,6.64
				c3.98,3.82,38.83,38.57,36.7,83.63c-0.84,17.81-8.18,44.04-38.32,67.91c-44.94,35.58-173.44,52.43-273.8,53.01
				C1723.03,2038.07,1721.07,2038.08,1719.08,2038.08z M1470.88,1819.59c-11.7,13.31-30.27,38.44-31.39,64.92
				c-0.65,15.37,4.87,29.15,16.89,42.11c92.29,99.59,457.58,67.54,514.15,22.76c13.63-10.79,20.54-22.04,21.12-34.39
				c0.76-16.01-9.28-32.45-16.83-41.99C1674.31,1882.18,1517.81,1836.49,1470.88,1819.59z"/>
		</g>
		<g style="opacity:0.25;">
			<path style="fill:#371A45;" d="M2781.88,2333.03c-55.07,66.53-231.68,130.75-326.75,71.17
				c-79.42-49.72-81.93-120.96-138.22-161.92c-3.28-2.38-13.2-6.7-28.34-13.33c178.28-56.23,341.43-84.44,488.22-93.84
				C2840.04,2212.97,2827.48,2277.89,2781.88,2333.03z"/>
		</g>
		<g>
			<path style="fill:#FFFFFF;" d="M2014.42,1491.12c199.19,248.52,527.83,400.89,724.16,578.02c107.6,97.09,90.67,143.81,37,208.73
				c-55.03,66.56-184.29,130.78-279.36,71.21c-79.41-49.76-84.35-97.03-140.63-138.03c-22.2-16.17-379.32-110.94-577.58-419.93"/>
		</g>
		<g style="opacity:0.25;">
			<path style="fill:#371A45;" d="M2775.57,2277.89c-55.01,66.53-184.27,130.75-279.34,71.17c-79.41-49.72-84.37-97-140.67-138.03
				c-22.16-16.17-379.3-110.91-577.55-419.94l4.06-5.15c221.12,232.45,451.6,246.36,604.68,364.18
				c55.16,42.45,59.95,56.54,139.37,106.26c95.07,59.58,224.34-4.64,279.34-71.17c3.54-4.25,6.89-8.44,10.05-12.56
				C2824.58,2210.2,2805.97,2241.11,2775.57,2277.89z"/>
		</g>
		<g>
			<path style="fill:#371A45;" d="M2021.13,1485.75c42.29,29.85,77.18,63.77,114.5,96.28c36.63,32.92,74.29,65.01,112.29,96.94
				c38.68,31.23,78.73,60.86,119.76,89.46c40.79,28.86,82.43,56.91,123.99,85.21c41.6,28.42,83.44,56.54,124.6,86.3
				c10.37,7.27,20.62,14.79,30.79,22.46c10.18,7.65,20.46,15.13,30.56,22.92c20.01,15.95,40.27,31.47,59.55,48.62
				c19.57,16.42,38.9,34.33,57.02,54.23c4.42,5.21,8.9,10.3,13.23,15.65c4.13,5.72,8.4,11.18,12.34,17.16l5.64,9.37l2.79,4.7
				c0.87,1.65,1.63,3.43,2.45,5.14l4.74,10.41c1.4,3.63,2.49,7.55,3.68,11.33c4.35,15.25,6.07,32.93,2.47,49.16
				c-3.27,16.14-9.65,30.73-17.07,43.08c-7.46,12.32-15.58,23.53-23.9,33.72c-3.93,5.12-8.65,10.4-13.43,15.66
				c-4.6,5.44-9.82,9.93-14.8,14.81c-20.38,18.77-42.95,34.3-67.14,47.02c-24.2,12.64-50.12,22.43-77.53,28.02
				c-27.33,5.56-56.4,6.77-85.06,1.05l-10.68-2.48c-3.57-0.78-7.11-1.66-10.53-3.07c-6.83-2.69-13.94-4.78-20.49-8.12
				c-6.45-3.44-13.12-6.88-19.3-10.49c-5.63-3.8-11.38-7.33-16.88-11.38c-11.06-7.98-21.83-16.63-31.84-26.15
				c-9.96-9.51-19.38-19.66-27.81-29.99c-16.98-20.73-30.51-40.57-46.42-55.53c-1.91-2.02-4.06-3.7-6.09-5.54
				c-2.03-1.84-4.09-3.64-6.31-5.26l-3.25-2.52l-1.62-1.27l-0.81-0.63c-0.37-0.3-0.02,0.06-0.05,0.05c0.13,0.14,0.29,0.24,0.46,0.29
				l-1.35-0.61c-1.09-0.48-1.9-0.91-3.37-1.48c-10.57-4.35-22.72-8.87-34.44-13.42c-23.68-9.16-47.41-18.77-70.84-29.05
				c-93.74-41.05-183.82-92.16-265.02-155.81c-20.41-15.75-39.96-32.62-59.2-49.84c-18.9-17.59-38.37-34.68-56.28-53.46
				c-9.11-9.23-17.72-18.95-25.72-29.18c-4.12-5.01-8.17-10.07-11.8-15.48c-3.77-5.29-7.49-10.62-11.04-16.06
				c-7.19-10.81-13.08-22.57-18.67-34.38c-5.18-12.09-9.64-24.59-12.51-37.84c-1.07-4.94,2.07-9.82,7.01-10.89
				c2.52-0.55,5.03,0,7.02,1.33l0.43,0.29c11.25,7.55,20.47,16.18,29.79,24.62c9.5,8.31,17.78,17.37,26.43,26.1
				c4.28,4.4,8.39,8.91,12.46,13.46c4.04,4.56,8.36,8.89,12.42,13.43c4.16,4.45,8.23,8.98,12.18,13.61
				c4.12,4.48,8.25,8.96,12.28,13.53c16.04,18.35,32.85,36.15,50.78,52.8c18.17,16.4,36.76,32.35,56.17,47.35
				c77.22,60.56,163.51,109.61,253.94,149.2c22.63,9.92,45.53,19.21,68.76,28.19c11.73,4.56,23.16,8.78,35.86,13.99
				c1.47,0.57,3.48,1.52,5.26,2.32c1,0.47,1.63,0.72,2.92,1.38c1.54,0.83,3.06,1.71,4.55,2.64c0.63,0.4,1.73,1.08,1.96,1.28
				l1.05,0.81l2.1,1.63l4.2,3.26c5.61,4.31,10.89,9.14,16.02,13.98c20.7,19.76,35.52,41.9,50.5,59.94
				c14.87,18.23,31.07,33.57,49.86,46.99c4.61,3.41,9.61,6.44,14.39,9.7l13.85,7.49c4.61,2.43,9.74,3.73,14.54,5.75
				c2.39,1.08,4.95,1.67,7.54,2.19l7.69,1.78c20.71,4.13,42.85,3.42,64.71-1.03c43.69-9.04,86.55-31.85,119.93-62.38
				c3.97-3.95,8.37-7.63,11.85-11.86c3.67-4.05,7.39-8.1,11.12-12.96c7.59-9.28,14.17-18.56,19.76-27.72
				c5.55-9.18,9.03-18.1,10.83-26.56c1.97-8.44,0.94-16.59-1.42-25.38c-5.08-17.57-18.12-36.35-33.72-53.53
				c-15.76-17.27-33.33-33.69-52.3-49.58c-18.3-16.32-38-31.38-57.31-46.8c-9.81-7.56-19.87-14.88-29.8-22.34
				c-9.9-7.48-19.93-14.83-30.15-22c-40.36-29.18-82.02-57.19-123.49-85.51c-41.59-28.32-83.39-56.47-124.72-85.71
				c-41.52-28.88-82.08-59.47-123.01-89.74c-40.29-31.18-80.56-62.91-116.23-99.99c-36.68-35.73-68.8-77.09-91.05-124.35
				c-2.08-4.41-0.18-9.67,4.23-11.75c2.97-1.4,6.33-1,8.84,0.77L2021.13,1485.75z"/>
		</g>
		<g>
			<path style="fill:#371A45;" d="M2029.9,2069.94c-1.78,0-3.59-0.21-5.4-0.65c-12.21-2.98-19.68-15.28-16.71-27.48
				c3.1-12.69,77.84-309.22,284.37-309.22c1.13,0,2.23,0.01,3.37,0.03c12.56,0.19,22.58,10.53,22.39,23.09
				c-0.19,12.56-10.54,22.89-23.09,22.39c-0.84-0.01-1.69-0.02-2.52-0.02c-171.38,0-239.64,271.75-240.31,274.51
				C2049.44,2062.97,2040.14,2069.94,2029.9,2069.94z"/>
		</g>
		<g>
			<path style="fill:#371A45;" d="M2872.1,1599.9c-3.77,0-7.59-0.94-11.12-2.92c-114.67-64.41-123.05-374.41-123.63-409.54
				c-0.21-12.56,9.8-22.91,22.36-23.12c0.13,0,0.26,0,0.39,0c12.38,0,22.52,9.94,22.73,22.36c1.48,88.23,22.4,326.81,100.43,370.64
				c10.95,6.15,14.84,20.02,8.69,30.97C2887.78,1595.72,2880.06,1599.9,2872.1,1599.9z"/>
		</g>
		<g>
			<path style="fill:#371A45;" d="M3060.4,1018.17c0.23,1.42,0.34,4.06,0.49,6.25l0.43,6.97c0.4,4.69,0.56,9.44,1.04,14.18
				c0.63,9.53,1.82,19.05,3.18,28.66c1.32,9.65,3.33,19.19,5.21,29.2c1.49,10.28,4.08,20.29,5.33,32.52
				c-10.93-5.03-20.09-12.72-27.52-21.65c-3.88-4.41-6.91-9.32-10-14.28c-2.68-5.09-5.53-10.23-7.67-15.61
				c-4.63-10.67-7.92-21.89-10-33.34c-0.87-5.75-1.74-11.53-1.92-17.4c-0.12-2.94-0.23-5.88-0.07-8.88c0.07-3.1,0.28-5.75,0.79-9.61
				c1.47-11.11,11.65-18.93,22.76-17.46c9.1,1.2,15.99,8.25,17.38,16.87L3060.4,1018.17z"/>
		</g>
	</g>
</g>
</svg>
