<?xml version="1.0" encoding="utf-8"?>
<!-- Generator: Adobe Illustrator 25.2.1, SVG Export Plug-In . SVG Version: 6.00 Build 0)  -->
<svg version="1.1" id="Livello_1" xmlns="http://www.w3.org/2000/svg" xmlns:xlink="http://www.w3.org/1999/xlink" x="0px" y="0px"
	 viewBox="0 0 1080 1080" style="enable-background:new 0 0 1080 1080;" xml:space="preserve">
<style type="text/css">
	.st0{fill:#FF912B;}
	.st1{fill:#FF7B35;}
	.st2{fill:#FFD89B;}
</style>
<g>
	<g>
		<path class="st0" d="M249.7,222.5c-16.4,6.1-27,20.4-27,36V606c0,71.1,33.8,137.7,90.3,178.2l204.1,130.8c13.6,8.7,32,8.7,45.6,0
			L767,784.3c56.6-40.5,90.3-107.1,90.3-178.2V259.5c0-16.1-11.3-30.6-28.4-36.5C580.9,138.1,481.5,135.8,249.7,222.5L249.7,222.5z"
			/>
		<path class="st1" d="M828.9,223c-120.7-41.3-206.2-63-288.9-64.4v763.1c8,0,16-2.2,22.8-6.5L767,784.3
			c56.6-40.5,90.3-107.1,90.3-178.2V259.5C857.3,243.4,846,228.8,828.9,223L828.9,223z"/>
	</g>
	<g>
		<g>
			<path class="st2" d="M560.8,532.4h-46.4c-41.6,0-75.5-33.9-75.5-75.5v-9c0-41.6,33.9-75.5,75.5-75.5h46.4
				c41.6,0,75.5,33.9,75.5,75.5v9C636.3,498.5,602.4,532.4,560.8,532.4z M514.4,402.5c-25,0-45.3,20.3-45.3,45.3v9
				c0,25,20.3,45.3,45.3,45.3h46.4c25,0,45.3-20.3,45.3-45.3v-9c0-25-20.3-45.3-45.3-45.3H514.4z"/>
		</g>
		<path class="st2" d="M607,743.3H478.8c-53,0-95.9-42.9-95.9-95.9V491.5c0-11.9,9.6-21.5,21.5-21.5h265.3
			c15.2,0,27.5,12.3,27.5,27.5v155.6C697.1,703,656.8,743.3,607,743.3z"/>
		<g>
			<ellipse transform="matrix(0.9436 -0.331 0.331 0.9436 -152.2932 209.8608)" class="st1" cx="540" cy="552" rx="41" ry="41"/>
			<path class="st1" d="M540,571.2L540,571.2c4.9,0,8.9,4,8.9,8.9v68.3c0,4.9-4,8.9-8.9,8.9l0,0c-4.9,0-8.9-4-8.9-8.9v-68.3
				C531.1,575.2,535.1,571.2,540,571.2z"/>
		</g>
	</g>
	<g>
		<path class="st2" d="M395,289.6c0-20.1,15.7-36.6,37.1-36.6c12.7,0,20.4,3.4,27.8,9.7l-9.8,11.8c-5.5-4.5-10.3-7.2-18.5-7.2
			c-11.3,0-20.3,10-20.3,22.2c0,12.9,8.9,22.4,21.4,22.4c5.7,0,10.7-1.4,14.7-4.2v-10.1h-15.7v-13.4h30.7v30.7
			c-7.3,6.2-17.3,11.2-30.2,11.2C410.1,326.2,395,310.7,395,289.6z"/>
		<path class="st2" d="M477.3,254.2h27.6c22.2,0,37.6,15.3,37.6,35.4c0,19.9-15.4,35.4-37.6,35.4h-27.6V254.2L477.3,254.2z
			 M504.9,310.9c12.7,0,21.3-8.6,21.3-21.3c0-12.5-8.6-21.3-21.3-21.3h-12v42.6L504.9,310.9L504.9,310.9z"/>
		<path class="st2" d="M556.4,254.2h28.9c16.9,0,27.1,10,27.1,24.7c0,16.4-12.7,24.9-28.6,24.9h-11.8V325h-15.6V254.2z M584.3,289.9
			c7.8,0,12.3-4.6,12.3-10.9c0-7-4.9-10.7-12.6-10.7h-12v21.6H584.3z"/>
		<path class="st2" d="M623.9,254.2h32.3c9,0,16,2.5,20.6,7.2c3.9,3.9,6.1,9.5,6.1,16.4c0,11.4-6.2,18.6-15.2,21.9L685,325h-18.2
			l-15.4-22.6h-12V325h-15.6L623.9,254.2L623.9,254.2z M655.2,288.6c7.6,0,11.9-4,11.9-10.2c0-6.7-4.7-10.1-12.2-10.1h-15.5v20.3
			L655.2,288.6L655.2,288.6z"/>
	</g>
</g>
</svg>
