<?xml version="1.0" encoding="utf-8"?>
<!-- Generator: Adobe Illustrator 25.2.1, SVG Export Plug-In . SVG Version: 6.00 Build 0)  -->
<svg version="1.1" id="Livello_1" xmlns="http://www.w3.org/2000/svg" xmlns:xlink="http://www.w3.org/1999/xlink" x="0px" y="0px"
	 viewBox="0 0 2048 2048" style="enable-background:new 0 0 2048 2048;" xml:space="preserve">
<g>
	<path style="opacity:0.3;fill:#232D3D;" d="M2010.43,1369.56c-15.7-26.59-48.82-57.53-94.77-90.41
		c-23.15-16.27-49.39-33.35-78.61-50.99c-29.22-17.65-61.54-35.52-96.49-53.74c-13.52-7.1-27.5-14.21-41.83-21.31
		c-0.34,4.01-0.69,8.02-1.15,11.92c-0.23,1.95-0.46,3.9-0.69,5.73c12.72,5.61,25.21,11.23,37.24,16.85
		c71.05,32.89,131.67,64.86,178.08,96.49c46.75,31.05,79.64,61.77,95,87.43c7.45,12.83,10.2,23.95,10.2,31.51
		c0.34,3.67-0.69,6.42-0.8,8.37c-0.23,1.49-0.34,2.41-0.46,2.75c-0.11,0.46-0.57,1.26-1.15,2.64c-0.92,1.6-1.72,4.81-3.9,7.79
		c-4.01,5.96-12.38,13.98-25.67,20.74c-26.7,13.18-70.93,21.2-127.08,22c-56.15,1.49-124.45-4.47-201.91-15.13
		c-19.25-2.64-39.08-5.73-59.36-9.05c-0.08-0.01-0.17-0.03-0.26-0.05c3.74-5.5,7.58-10.92,11.14-16.57
		c6.63-10.56,12.83-21.42,18.84-32.42c21.75,2.25,43.16,4.12,64.09,5.48c21.8,1.41,41.54,2.13,59.24,2.12
		c71.78,0,110.16-11.64,116.81-35.26c15.33-54.38-156.36-146.88-175.69-157.07l-2.38,12.54c69.82,36.8,176.69,107.17,167.04,141.41
		c-3.67,13.01-29.84,33.56-164.29,24.82c-19.42-1.26-39.15-2.9-59.1-4.88c1.95-3.74,4.01-7.38,5.91-11.18
		c13.87-28.3,25.67-57.98,35.06-89.15c0.12,0,0.12-0.11,0.12-0.11c3.78-12.49,7.22-25.1,10.31-38.04v-0.34
		c3.55-14.67,6.53-29.79,9.05-45.03c0-0.11,0-0.11,0-0.23c1.83-11.23,3.32-22.57,4.58-34.15c2.29-21.54,3.67-43.66,3.78-66.23
		c0.12-6.42,0.12-13.06,0-19.6c-0.34-16.39-1.03-32.43-2.29-48.24c-1.14-16.27-2.75-32.2-5.04-47.9c-0.34-2.41-0.69-4.7-1.03-7.1
		c-0.46-3.44-1.03-6.76-1.72-10.08c-2.06-13.29-4.47-26.24-7.33-38.96c-5.96-27.04-13.41-53.17-22.46-78.27v-0.34
		c-0.23-0.34-0.34-0.8-0.46-1.15c-0.8-2.18-1.6-4.47-2.41-6.65l-0.11-0.23c-27.16-74.26-66.81-139.34-116.31-193.78
		c-15.13-16.85-31.4-32.66-48.36-47.44c-4.35-3.78-8.82-7.56-13.29-11.12c-16.73-13.87-34.38-26.59-52.71-38.39
		c-15.47-10.08-31.63-19.48-48.13-28.08c-5.96-3.09-12.03-6.19-18.1-9.05c-41.14-19.48-84.8-34.84-130.87-45.38h-0.11
		c-21.31-4.93-43.09-8.82-65.2-11.69c-30.48-4.01-61.76-5.96-93.74-5.96c-4.01,0-8.13,0-12.15,0.11
		c-37.36,0.57-74.6,4.01-111.04,10.2c-15.13,2.52-29.91,5.5-44.69,9.05c-13.29,2.98-26.47,6.42-39.42,10.31
		c-2.41,0.69-4.81,1.49-7.22,2.29c0,0,0,0-0.12,0c-27.62,8.48-54.43,18.68-80.21,30.6c-37.01,17.19-71.96,37.7-103.82,61.77
		c0,0.11,0,0.11,0,0.11c-30.25,22.69-57.87,48.59-82.05,77.46c-49.85,59.7-84,133.39-105.31,212.91c-0.34,1.15-0.69,2.29-0.92,3.44
		c-3.1,11.12-5.73,22.35-8.14,33.8c-2.29,10.31-4.24,20.86-6.19,31.4c-1.38,7.68-2.64,15.36-3.67,23.03v0.11
		c-4.13,27.55-6.8,55.45-8.43,83.36c-151.33-68.3-251.53-126.16-261.29-150.08c-2.81-6.88-2.38-12.4,1.35-17.38
		c28.77-38.28,218.29-26.78,290.45-19.17l3.46-11.71c-27.22-2.86-265.2-26.44-303.07,24c-6.13,8.17-7.1,18.06-2.8,28.6
		c11.68,28.62,116.08,88.88,271.24,158.27c-0.72,15.74-1.21,31.47-1.22,47.12c0,0-0.01,0-0.01,0
		c-11.46-5.16-22.92-10.54-34.27-15.93c-56.95-27.04-113.45-56.38-166.62-90.64c-26.59-17.19-52.48-35.52-75.4-56.49
		c-11.11-10.77-22.12-21.89-29.91-34.38c-7.79-12.38-12.72-26.01-9.74-38.04c0.8-1.15,2.75-7.56,4.35-9.17
		c2.06-2.06,2.86-4.58,5.96-6.76c4.81-4.81,11.12-8.71,17.76-12.15c13.18-6.88,28.53-10.89,43.77-14.44
		c30.71-6.42,62.68-8.94,94.42-9.97c63.83-1.26,127.54,3.55,190.45,10.54c0.46,0,0.92,0.11,1.38,0.11
		c1.03-3.44,2.18-6.76,3.44-10.08c-1.26-0.11-2.41-0.34-3.67-0.46c-63.03-7.68-127.08-13.29-191.71-12.72
		c-32.32,0.11-64.86,1.6-97.4,7.33c-16.16,3.32-32.54,6.88-48.13,14.44c-7.79,3.67-15.59,8.02-22.46,14.32
		c-3.55,2.52-6.76,7.33-9.85,11.46c-1.83,2.18-2.29,3.9-3.21,5.73l-1.26,2.75l-0.57,1.38c-0.46,1.03,0-0.11-1.03,2.52
		c-0.8,4.81-2.29,9.85-2.06,14.67c0.46,4.7,0.23,9.85,1.83,14.21c2.18,9.17,6.19,17.19,10.54,24.87
		c8.71,15.24,20.28,27.5,31.86,39.53c23.72,23.38,49.85,43.32,76.66,61.77c53.86,36.67,110.47,67.61,167.53,96.37
		c16.04,8.02,32.09,15.81,48.13,23.38l0,0c2.7,60.83,12.77,119.78,29.79,175.21c5.62,18.56,12.15,36.78,19.37,54.55
		c17.53,43.32,39.53,84.11,65.66,121.24c6.87,9.74,13.98,19.37,21.43,28.53c0,0.11,0,0.11,0,0.11c6.19,7.68,12.61,15.36,19.14,22.69
		c8.37,9.51,17.19,18.56,26.24,27.39c3.44,3.32,6.87,6.65,10.43,9.85c14.55,13.64,29.91,26.24,46.07,37.93
		c0.11,0.11,0.23,0.11,0.34,0.23c64.06,46.98,139.57,79.53,224.72,93.16c23.83,4.01,48.47,6.42,74.03,7.1
		c24.98,0.8,50.76,0,77.24-2.29c128,0,247.86-34.38,348.13-96.6c64.27-39.77,120.25-91.11,165.1-152.2c0.05,0,0.1,0.01,0.14,0.02
		c23.95,2.75,47.21,5.16,69.67,7.22c39.19,3.55,75.97,5.96,110.12,6.99c34.15,0.8,65.43,0.69,93.74-0.57
		c56.49-2.75,101.07-11,128.69-24.98c13.64-7.22,22.46-15.47,26.93-22.69c2.41-3.32,2.98-6.19,3.9-7.91
		c0.8-1.83,1.26-2.75,1.26-2.75v-0.23c0,0,0.23-1.03,0.57-3.09c0.11-2.06,1.26-5.04,1.03-9.05
		C2020.97,1394.88,2018.1,1382.96,2010.43,1369.56z"/>
	<path style="fill:#89D8F7;" d="M1607.72,966.34c0.11,6.53,0.11,13.18,0,19.6c-0.11,22.57-1.49,44.69-3.78,66.23
		c-1.26,11.57-2.75,22.92-4.58,34.15c0,0.11,0,0.11,0,0.23c-2.52,15.24-5.5,30.37-9.05,45.03v0.34
		c-3.09,12.95-6.53,25.55-10.31,38.04c0,0,0,0.11-0.11,0.11c-9.4,31.17-21.2,60.85-35.07,89.15c-9.4,18.79-19.48,36.9-30.48,54.43
		c-48.01,76.09-112.42,138.89-188.16,185.75c-100.27,62.22-220.13,96.6-348.13,96.6c-26.47,2.29-52.25,3.09-77.24,2.29
		c-25.55-0.69-50.19-3.09-74.03-7.1c-85.14-13.64-160.66-46.18-224.72-93.16c-0.11-0.11-0.23-0.11-0.34-0.23
		c-16.16-11.69-31.51-24.29-46.07-37.93c-3.55-3.21-6.99-6.53-10.43-9.85c-9.05-8.82-17.88-17.88-26.24-27.39
		c-6.53-7.33-12.95-15.01-19.14-22.69c0,0,0,0,0-0.11c-7.45-9.17-14.55-18.79-21.43-28.53c-26.13-37.13-48.13-77.92-65.66-121.24
		c-7.22-17.76-13.75-35.98-19.37-54.55c-17.42-56.72-27.62-117.11-30.02-179.45c-0.23-7.22-0.46-14.55-0.46-21.77v-0.11
		c-0.11-2.52-0.11-4.81-0.11-7.33c0-47.79,3.21-96.26,10.31-143.7v-0.11c1.03-7.68,2.29-15.36,3.67-23.03
		c1.95-10.54,3.9-21.09,6.19-31.4c2.41-11.46,5.04-22.69,8.14-33.8c0.23-1.15,0.57-2.29,0.92-3.44
		c21.31-79.53,55.46-153.21,105.31-212.91c24.18-28.88,51.8-54.78,82.05-77.46c0,0,0,0,0-0.11c31.86-24.06,66.81-44.58,103.82-61.77
		c25.78-11.92,52.6-22.12,80.21-30.6c0.11,0,0.11,0,0.11,0c2.41-0.8,4.81-1.6,7.22-2.29c12.95-3.9,26.13-7.33,39.42-10.31
		c14.78-3.55,29.56-6.53,44.69-9.05c36.44-6.19,73.68-9.63,111.04-10.2c4.01-0.11,8.14-0.11,12.15-0.11
		c31.97,0,63.26,1.95,93.74,5.96c22.12,2.86,43.89,6.76,65.2,11.69h0.11c46.07,10.54,89.73,25.9,130.86,45.38
		c6.07,2.86,12.15,5.96,18.11,9.05c16.5,8.59,32.66,17.99,48.13,28.08c18.33,11.8,35.98,24.52,52.71,38.39
		c4.47,3.55,8.94,7.33,13.29,11.12c16.96,14.78,33.23,30.6,48.36,47.44c49.5,54.43,89.15,119.52,116.31,193.78l0.11,0.23
		c0.8,2.18,1.6,4.47,2.41,6.65c0.11,0.34,0.23,0.8,0.46,1.15v0.34c9.05,25.1,16.5,51.22,22.46,78.27
		c2.86,12.72,5.27,25.67,7.33,38.96c0.69,3.32,1.26,6.65,1.72,10.08c0.34,2.41,0.69,4.7,1.03,7.1c2.29,15.7,3.9,31.63,5.04,47.9
		C1606.68,933.91,1607.37,949.96,1607.72,966.34z"/>
	<path style="fill:#89D8F7;" d="M1503.44,1330.29c-3.9,5.73-7.91,11.46-12.03,16.96c-59.93-6.99-124.45-16.5-192.63-28.88
		c-95.57-17.42-198.02-41.25-305.27-70.59c-26.81-7.1-53.86-14.9-81.36-22.8c-27.16-7.91-54.78-16.5-82.74-25.21
		c-55.69-17.65-112.3-36.44-169.25-57.3c-97.98-35.87-197.9-75.52-296.57-122.16c-0.11-1.38-0.23-2.86-0.23-4.24
		c-0.23-7.22-0.46-14.55-0.46-21.77v-0.11c-0.11-2.52-0.11-4.81-0.11-7.33v-0.69c102.79,47.33,206.95,87.55,309.17,123.3
		c56.84,19.71,112.99,38.5,168.22,55.81c27.62,8.71,55,16.96,82.28,25.1c27.04,8.02,53.97,16.04,80.56,23.49
		c106.11,30.14,207.53,55,301.38,76.55C1375.09,1306.22,1441.67,1319.86,1503.44,1330.29z"/>
	<path style="fill:#AEE8FF;" d="M965.88,336.66c-67.04,52.14-135.56,108.63-203.4,143.13c-112.87,57.3-246.15,210.16-223.23,107.03
		c11.92-53.86,121.81-144.16,224.14-218.3c0.11,0,0.11,0,0.11,0c2.41-0.8,4.81-1.6,7.22-2.29
		C833.18,347.66,899.3,337.69,965.88,336.66z"/>
	<path style="fill:#AEE8FF;" d="M1286.05,408.62c-90.41,85.14-217.27,192.52-300.81,213.03
		c-142.21,34.95-174.75,87.32-284.08,152.29c-109.21,64.97-276.51,114.59-201.34,19.14c75.17-95.57,215.09-129.95,297.48-213.94
		c82.28-84,93.39-49.62,187.93-114.59c49.16-33.8,107.26-76.78,151.72-110.35h0.11c46.07,10.54,89.73,25.9,130.86,45.38
		C1274.02,402.43,1280.09,405.53,1286.05,408.62z"/>
	<path style="fill:#AEE8FF;" d="M1009.08,825.51c-117.46,54.43-165.24,28.65-267.34,131.78
		c-102.22,103.13-118.83,131.78-205.12,166.16c-38.04,15.13-93.28,44.23-143.24,72.08c-4.24-13.87-8.14-27.96-11.46-42.28
		c-8.59-36.1-14.32-73.34-17.07-111.5c-0.69-8.48-1.15-17.07-1.49-25.67c36.9-11,89.15-27.96,136.48-48.47
		c85.26-37.01,118.37-101.99,258.41-136.37s99.7-87.89,228.73-133.73s136.71-152.75,182.55-91.67
		C1215.35,667.03,1126.54,771.08,1009.08,825.51z"/>
	<path style="fill:#AEE8FF;" d="M1590.3,814.05c-43.43,23.26-86.63,39.19-116.2,32.2c-82.16-19.37,10.54-78.04-20.97-115.28
		c-31.51-37.24-74.49,2.86-154.7,68.76c-80.21,65.89-151.84,97.4-223.23,125.94s-134.88,88.92-215.09,146.22
		c-80.21,57.3-134.65,22.92-131.32,0c3.21-22.92,99.81-103.13,159.97-131.78c60.16-28.65,143.24-54.43,189.08-93.85
		c45.84-39.42,83.08-66.58,129.72-109.55c46.52-42.97,16.39-126.05,47.9-163.41c21.2-25.21,89.38-71.05,131.44-98.21
		c4.47,3.55,8.94,7.33,13.29,11.12c16.96,14.78,33.23,30.6,48.36,47.44c50.99,56.15,91.56,123.53,118.83,200.65
		C1576.55,759.85,1584.22,786.43,1590.3,814.05z"/>
	<path style="fill:#AEE8FF;" d="M622.33,1263.83c-20.05,65.89-83.08,88.81-63.03,131.78c7.22,15.47-0.92,35.29-14.09,54.43
		c-9.05-8.82-17.88-17.88-26.24-27.39c-6.53-7.33-12.95-15.01-19.14-22.69c0,0,0,0,0-0.11c-7.45-9.17-14.55-18.79-21.43-28.53
		c-26.13-37.13-48.13-77.92-65.66-121.24c31.51-21.54,94.42-61.88,137.97-72.19c60.16-14.32,108.86-57.3,131.78-25.78
		C705.41,1183.61,642.39,1197.93,622.33,1263.83z"/>
	<path style="fill:#AEE8FF;" d="M728.6,1189.34c0,0-66.16,85.94-74.76,126.05c-8.59,40.11,15.15,57.3,74.9,28.65
		s69.38-128.92,172-154.7c102.61-25.78,266.18-111.73,336.23-157.56c70.05-45.84,147.4-146.11,84.38-160.43
		c-63.03-14.32-111.73,43.5-191.94,96.23c-80.21,52.74-212,132.95-277.89,161.6S771.85,1166.42,728.6,1189.34z"/>
	<path style="fill:#AEE8FF;" d="M1603.93,1052.17c-1.26,11.57-2.75,22.92-4.58,34.15c0,0.11,0,0.11,0,0.23
		c-9.63,59.13-26.81,114.25-50.88,164.9c-1.15,2.64-2.41,5.16-3.67,7.79c-9.4,18.79-19.48,36.9-30.48,54.43
		c-48.01,76.09-112.42,138.89-188.16,185.75c-100.27,62.22-220.13,96.6-348.13,96.6c-26.47,2.29-52.25,3.09-77.24,2.29
		c-25.55-0.69-50.19-3.09-74.03-7.1c-52.94-8.48-102.22-24.29-147.25-46.3c-27.39-13.41-53.17-29.11-77.46-46.87
		c45.95-20.97,107.83-50.08,157.79-76.66c91.67-48.7,88.81-106,166.16-157.56c77.35-51.57,164.21-88.81,170.97-45.84
		c6.65,42.97-24.87,83.19-79.3,110.35c-54.43,27.16-137.51,52.94-106,81.59c31.51,28.65,146.11,20.05,209.13-22.92
		c63.03-42.97,98.09-40.11,223.8-123.19s122.84-85.37,177.27-150.12C1541.48,1090.22,1572.42,1069.36,1603.93,1052.17z"/>
	<path style="fill:#AEE8FF;" d="M1607.72,966.34c0.11,6.53,0.11,13.18,0,19.6c-68.64,17.3-100.15,77.35-174.64,127.77
		c-74.49,50.42-88.81,95.68-151.84,118.6c-63.03,22.92-117.46,45.84-131.78,0c-14.32-45.84,80.21-80.21,106-129.03
		c25.78-48.93,103.13-88.69,171.89-135.68c44.12-30.14,122.5-71.62,173.04-97.4c2.29,15.7,3.9,31.63,5.04,47.9
		C1606.68,933.91,1607.37,949.96,1607.72,966.34z"/>
	<path style="fill:#5187E5;" d="M1597.63,853.01c-28.3,11.46-65.89,28.42-101.53,49.16c-70.13,40.91-47.21,25.1-101.41,56.49
		c-54.09,31.63-51.91,47.33-101.99,81.7s-90.18,55.81-61.54,11.8c28.65-44.12,124.56-79.07,156.08-120.67
		c31.51-41.6,85.94-47.33,113.22-62.34c27.16-15.13,0-37.93-17.19-45.03c-17.19-7.22,17.19-40.11,57.3-57.3
		c24.64-10.54,28.19-23.03,27.27-31.05c9.05,25.1,16.5,51.22,22.46,78.27C1593.16,826.77,1595.57,839.72,1597.63,853.01z"/>
	<path style="fill:#5187E5;" d="M1548.47,1251.45c-1.15,2.64-2.41,5.16-3.67,7.79c-9.4,18.79-19.48,36.9-30.48,54.43
		c-48.01,76.09-112.42,138.89-188.16,185.75c-100.27,62.22-220.13,96.6-348.13,96.6c-26.47,2.29-52.25,3.09-77.24,2.29
		c-25.55-0.69-50.19-3.09-74.03-7.1c-52.94-8.48-102.22-24.29-147.25-46.3c18.68-11.34,44.46-23.26,69.79-22.35
		c47.79,1.95,102.06,21.38,134.19,20.97c142.78-1.83,96.95-47.67,137.05-64.86c40.11-17.19,133.39-85.94,161.23-85.94
		s46.98,28.65-10.31,68.76s-108.86,64.97-99.35,72.54c9.51,7.68,106.91-17.19,164.21-47.67c57.3-30.6,58.1-44,108.29-78.38
		C1384.49,1380.71,1483.73,1289.61,1548.47,1251.45z"/>
	<path style="fill:#5187E5;" d="M1344.64,1302.5c0,0-92.04,44.4-79.15,64.46c12.89,20.05,55.17-5.73,79.15-24.35
		c23.98-18.62,129.98-67.72,137.14-91.16C1488.94,1228.02,1456.73,1203.66,1344.64,1302.5z"/>
	<path style="fill:#5187E5;" d="M872.95,1271.04c-42.86,54.32-38.62,55.81-73,93.05c-34.38,37.24-40.22,35.75-112.53,75.86
		c-31.51,17.53-61.65,39.08-85.72,57.87c-16.16-11.69-31.51-24.29-46.07-37.93c12.72-7.68,28.99-20.05,32.32-34.84
		c5.73-25.21-4.81-43.77,14.09-79.53c18.79-35.87,20.28-35.87,26.01,0c5.73,35.75-42.97,58.79-15.7,79.53
		c27.16,20.63,50.08-9.05,93.05-31.4c42.97-22.46,64.4-25.32,88.81-68.3c24.41-42.86,55.46-78.73,89.27-101.64
		C917.41,1200.8,916.03,1216.5,872.95,1271.04z"/>
	<path style="fill:#5187E5;" d="M679.51,830.78c-49.96,31.97-73.11,41.83-123.87,75.63c-46.75,31.05-116.08,63.83-192.74,87.78
		c-0.11-2.52-0.11-4.81-0.11-7.33c0-47.79,3.21-96.26,10.31-143.7v-0.11c26.81-16.5,63.14-35.64,70.13-23.26
		c11.46,20.05-40.11,57.53-22.92,71.74s95.8-1.03,135.33-21.31c39.53-20.4,103.94-50.42,138.31-67.61s35.87-52.94,57.3-31.51
		C772.79,792.51,729.48,798.69,679.51,830.78z"/>
	<path style="fill:#5187E5;" d="M821.38,510.38c-48.59,27.27-95.91,52.25-124.56,89.84c-28.65,37.59-65.89,74.94-121.81,86.4
		c-55.81,11.46-45.84-15.81-110.24,31.4c-25.78,18.91-51.68,30.14-73.68,36.78c0.23-1.15,0.57-2.29,0.92-3.44
		c21.31-79.53,55.46-153.21,105.31-212.91c24.18-28.88,51.8-54.78,82.05-77.46c0.46,5.04-0.23,11-2.86,18.22
		c-11.46,31.17-61.54,64.97-73,108.29c-11.46,43.2,9.97,63.26,27.16,63.26s57.3-18.68,81.7-37.24
		c24.29-18.56,65.78-50.19,110.24-78.84c44.46-28.65,58.67-44.81,98.78-59.59C861.49,460.19,870.2,483.11,821.38,510.38z"/>
	<path style="fill:#5187E5;" d="M676.05,1043.95c0,0-17.91,27.22-43.69,45.84c-25.78,18.62-81.65,30.08-95.26,47.27
		c-13.61,17.19,13.61,21.49,28.65,16.47s45.12-24.35,70.9-30.8c25.78-6.45,49.42,18.62,66.61,13.61s-2.15-27.93,5.73-55.86
		c7.88-27.93,75.2-73.05,73.05-97.4S736.93,968.03,676.05,1043.95z"/>
	<path style="fill:#5187E5;" d="M1225.85,493.67c0,0-37.24,20.53-48.23,38.2c-10.98,17.67-0.48,40.11,13.37,45.84
		c13.85,5.73,52.04-8.12,68.76-34.86c16.71-26.74,71.62-41.94,63.98-67.76C1316.1,449.26,1285.06,423.96,1225.85,493.67z"/>
	<path style="fill:#5187E5;" d="M883.54,424.43c0,0-16.98,9.31-6.24,18.62c10.74,9.31,34.38-8.59,33.66-18.62
		C910.25,414.41,892.76,415.17,883.54,424.43z"/>
	<path style="fill:#5187E5;" d="M949.64,397.22c0,0-23.63,13.45-13.61,19.98s40.82-6.37,44.4-15.68
		C984.02,392.2,971.12,381.46,949.64,397.22z"/>
	<path style="fill:#5187E5;" d="M791.36,764.43c0,0-28.97,19.54-18.78,30.28c10.19,10.74,46-5.21,48.86-15.14
		C824.3,769.64,808.15,749.12,791.36,764.43z"/>
	<path style="fill:#5187E5;" d="M883.54,887.82c0,0-44.2,7.16-54.23,25.07s25.78,15.04,50.85,3.58
		c25.07-11.46,127.48-42.97,138.23-56.58c10.74-13.61-17.19-7.16-57.3,0C920.99,867.05,912.22,880.12,883.54,887.82z"/>
	<path style="fill:#5187E5;" d="M1012.66,977.34c0,0-11.46,9.31-46.55,42.97s-5.73,27.22,23.28,12.18
		c29.01-15.04,56.22-45.41,89.88-61.38c33.66-15.97,93.82-40.5,65.17-45.42C1115.8,920.76,1057.79,949.41,1012.66,977.34z"/>
	<path style="fill:#5187E5;" d="M1110.78,1122.73c0,0-25.07,11.46-66.61,28.65c-41.54,17.19-78.07,26.5-97.4,38.68
		c-19.34,12.18-20.05,31.51-5.73,32.95c14.32,1.43,37.24-13.41,65.89-27.47c28.65-14.07,81.82-21.23,96.06-12.63
		s42.15,1.43,48.97-12.89C1158.77,1155.68,1153.76,1098.38,1110.78,1122.73z"/>
	<path style="fill:#5187E5;" d="M1033.43,1337.59c0,0-20.77,14.32-59.45,29.36c-38.67,15.04-41.34,25.07-23.89,35.81
		s72.6,0.72,104.11-9.31c31.51-10.03,55.86-37.24,81.65-52.28C1161.63,1326.14,1145.16,1269.55,1033.43,1337.59z"/>
	<path style="fill:#5187E5;" d="M1500.88,1090.98c0,0-20.05,11.46-65.89,43.93c-45.84,32.47-97.4,66.56-99.31,88.19
		c-1.91,21.63,52.52-6.06,88.81-37.58c36.29-31.51,78.3-68.76,101.22-94.54C1548.62,1065.2,1532.39,1063.29,1500.88,1090.98z"/>
	<path style="fill:#5187E5;" d="M1361.46,789.16c0,0-26.74,11.52-52.52,29.66c-25.78,18.14-15.28,27.69,11.46,21.01
		c26.74-6.68,59.21-23.87,66.85-1.91c7.64,21.96,57.5-59.61,48.81-78.98C1427.35,739.56,1402.52,748.99,1361.46,789.16z"/>
	<path style="opacity:0.5;fill:#AEE8FF;" d="M1071.77,342.5c-12.72,17.76-30.6,34.15-51.11,34.15c-43.66,0-26.81-20.97-77.24-22.46
		c-50.31-1.49-81.36,19.6-127.2,53.97c-45.84,34.38-73.57,52.6-110.81,78.38s-78.27,43.89-73.57,22.92
		c4.81-21.09,84.11-83.08,113.68-105.43c16.96-12.72,44.35-33.12,64.63-48.13c50.54-12.03,103.02-18.45,155.73-19.25
		c4.01-0.11,8.14-0.11,12.15-0.11C1010,336.54,1041.28,338.49,1071.77,342.5z"/>
	<path style="opacity:0.5;fill:#AEE8FF;" d="M883.49,838.34c-43.43,12.26-58.44,16.73-104.28,53.17s-78.15,95.8-153.33,108.75
		s-132.47,17.99-136.82,44.46c-4.24,26.47,61.65-42.28,92.48-20.86c30.83,21.54,32.54,41.6-21.66,53.06
		c-54.32,11.46-100.15,15.58-127.31,36.78c-12.83,10.08-33,25.78-50.65,39.53c-8.59-36.1-14.32-73.34-17.07-111.5
		c18.45-6.76,41.94-14.44,56.27-16.39c26.47-3.67,50.08-28.65,80.9-34.38c30.83-5.73,65.2-27.27,84.45-45.84
		c19.37-18.68,75.29-49.27,106.11-65.89c30.71-16.5,81.59-20.28,107.37-27.39c25.78-6.99,60.16-55,94.54-50.65
		C928.87,805.45,927.03,826.2,883.49,838.34z"/>
	<path style="opacity:0.5;fill:#AEE8FF;" d="M1032,1230.55c0,0-56.51,20.86-100.83,55.23c-44.32,34.38-86.44,86.9-76.36,99.31
		c10.08,12.41,10.08-8.59,48.28-36.29c38.2-27.69,94.54-43.93,128.92-67.8C1066.38,1257.14,1074.02,1218.29,1032,1230.55z"/>
	<path style="opacity:0.5;fill:#AEE8FF;" d="M1387.24,1027.48c0,0-12.4,20.05-62.78,54.43c-50.38,34.38-124.87,84.51-116.27,106
		c8.59,21.49,32.54,14.32,77.87-8.59c45.32-22.92,73.97-37.56,112.64-76.07c38.68-38.52,47.27-47.11,91.67-75.76
		c44.4-28.65,110.3-54.43,80.21-75.92C1540.51,930.07,1441.67,994.53,1387.24,1027.48z"/>
	<path style="opacity:0.5;fill:#AEE8FF;" d="M1579.87,1170.09c-9.4,31.17-21.2,60.85-35.07,89.15c-9.4,18.79-19.48,36.9-30.48,54.43
		c-39.42,62.45-89.96,116.08-148.74,159.17c-0.11,0-0.11,0.11-0.23,0.11c-12.61,9.28-25.78,18.11-39.19,26.47
		c-100.27,62.22-220.13,96.6-348.13,96.6c-26.47,2.29-52.25,3.09-77.24,2.29c-25.55-0.69-50.19-3.09-74.03-7.1
		c-85.14-13.64-160.66-46.18-224.72-93.16c-0.11-0.11-0.23-0.11-0.34-0.23c-16.16-11.69-31.51-24.29-46.07-37.93
		c-3.55-3.21-6.99-6.53-10.43-9.85c-9.05-8.82-17.88-17.88-26.24-27.39c-6.53-7.33-12.95-15.01-19.14-22.69c0,0,0,0,0-0.11
		c-7.45-9.17-14.55-18.79-21.43-28.53c-26.13-37.13-48.13-77.92-65.66-121.24c-7.22-17.76-13.75-35.98-19.37-54.55
		c-17.42-56.72-27.62-117.11-30.02-179.45c-0.23-7.22-0.46-14.55-0.46-21.77v-0.11c-0.11-2.52-0.11-4.81-0.11-7.33
		c0-47.79,3.21-96.26,10.31-143.7v-0.11c1.03-7.68,2.29-15.36,3.67-23.03c1.95-10.54,3.9-21.09,6.19-31.4
		c2.41-11.46,5.04-22.69,8.14-33.8c0.23-1.15,0.57-2.29,0.92-3.44c21.31-79.53,55.46-153.21,105.31-212.91
		c24.18-28.88,51.8-54.78,82.05-77.46c0,0,0,0,0-0.11c31.86-24.06,66.81-44.58,103.82-61.77
		c-22.57,54.32-121.24,324.18,22.23,578.01c160.43,283.85,376.09,327.28,467.65,331.4C1264.62,1312.53,1513.41,1288,1579.87,1170.09
		z"/>
	<path style="fill:#AEE8FF;" d="M1365.35,1472.96c-12.61,9.28-25.78,18.11-39.19,26.47c-100.27,62.22-220.13,96.6-348.13,96.6
		c-26.47,2.29-52.25,3.09-77.24,2.29c-25.55-0.69-50.19-3.09-74.03-7.1c-85.14-13.64-160.66-46.18-224.72-93.16
		c-0.11-0.11-0.23-0.11-0.34-0.23c-16.16-11.69-31.51-24.29-46.07-37.93c-3.55-3.21-6.99-6.53-10.43-9.85
		c-9.05-8.82-17.88-17.88-26.24-27.39c-6.53-7.33-12.95-15.01-19.14-22.69c0,0,0,0,0-0.11c-7.45-9.17-14.55-18.79-21.43-28.53
		c-26.13-37.13-48.13-77.92-65.66-121.24c-7.22-17.76-13.75-35.98-19.37-54.55c-17.42-56.72-27.62-117.11-30.02-179.45
		c-0.23-7.22-0.46-14.55-0.46-21.77v-0.11c-0.11-2.52-0.11-4.81-0.11-7.33c0-47.79,3.21-96.26,10.31-143.7v-0.11
		c1.03-7.68,2.29-15.36,3.67-23.03c1.95-10.54,3.9-21.09,6.19-31.4c2.41-11.46,5.04-22.69,8.14-33.8c0.23-1.15,0.57-2.29,0.92-3.44
		c21.31-79.53,55.46-153.21,105.31-212.91c0,0-135.68,422.73,73.45,713C779.78,1541.6,1148.89,1561.42,1365.35,1472.96z"/>
	<path style="opacity:0.5;fill:#AEE8FF;" d="M1607.72,966.34c0.11,6.53,0.11,13.18,0,19.6c-0.11,22.57-1.49,44.69-3.78,66.23
		c-1.26,11.57-2.75,22.92-4.58,34.15c0,0.11,0,0.11,0,0.23c-2.52,15.24-5.5,30.37-9.05,45.03
		c10.08-100.61-29.45-344.47-197.44-560.13c-168.22-215.78-538.01-224.6-538.01-224.6c36.44-6.19,73.68-9.63,111.04-10.2
		c4.01-0.11,8.14-0.11,12.15-0.11c31.97,0,63.26,1.95,93.74,5.96c22.12,2.86,43.89,6.76,65.2,11.69h0.11
		c46.07,10.54,89.73,25.9,130.86,45.38c6.07,2.86,12.15,5.96,18.11,9.05c16.5,8.59,32.66,17.99,48.13,28.08
		c18.33,11.8,35.98,24.52,52.71,38.39c4.47,3.55,8.94,7.33,13.29,11.12c16.96,14.78,33.23,30.6,48.36,47.44
		c49.5,54.43,89.15,119.52,116.31,193.78l0.11,0.23c0.8,2.18,1.6,4.47,2.41,6.65c0.11,0.34,0.23,0.8,0.46,1.15v0.34
		c9.05,25.1,16.5,51.22,22.46,78.27c2.86,12.72,5.27,25.67,7.33,38.96c0.69,3.32,1.26,6.65,1.72,10.08c0.34,2.41,0.69,4.7,1.03,7.1
		c2.29,15.7,3.9,31.63,5.04,47.9C1606.68,933.91,1607.37,949.96,1607.72,966.34z"/>
	<path style="fill:#FFFFFF;" d="M1916.77,1256.72c-15.7-26.59-48.82-57.53-94.77-90.41c-23.15-16.27-49.39-33.35-78.61-50.99
		c-29.22-17.65-61.54-35.52-96.49-53.74c-13.52-7.1-27.5-14.21-41.83-21.31c-0.34,4.01-0.69,8.02-1.15,11.92
		c-0.23,1.95-0.46,3.9-0.69,5.73c12.72,5.61,25.21,11.23,37.24,16.85c71.05,32.89,131.67,64.86,178.08,96.49
		c46.75,31.05,79.64,61.77,95,87.43c7.45,12.83,10.2,23.95,10.2,31.51c0.34,3.67-0.69,6.42-0.8,8.37c-0.23,1.49-0.34,2.41-0.46,2.75
		c-0.11,0.46-0.57,1.26-1.15,2.64c-0.92,1.6-1.72,4.81-3.9,7.79c-4.01,5.96-12.38,13.98-25.67,20.74
		c-26.7,13.18-70.93,21.2-127.08,22c-56.15,1.49-124.45-4.47-201.91-15.13c-19.25-2.64-39.08-5.73-59.36-9.05
		c-61.77-10.43-128.34-24.06-199.05-39.88c-93.85-21.54-195.27-46.41-301.38-76.55c-26.59-7.45-53.51-15.47-80.56-23.49
		c-27.27-8.14-54.66-16.39-82.28-25.1c-55.23-17.3-111.38-36.1-168.22-55.81c-102.22-35.75-206.38-75.97-309.17-123.3
		c-11.46-5.16-22.92-10.54-34.26-15.93c-56.95-27.04-113.45-56.38-166.62-90.64c-26.59-17.19-52.48-35.52-75.4-56.49
		c-11.12-10.77-22.12-21.89-29.91-34.38c-7.79-12.38-12.72-26.01-9.74-38.04c0.8-1.15,2.75-7.56,4.35-9.17
		c2.06-2.06,2.86-4.58,5.96-6.76c4.81-4.81,11.12-8.71,17.76-12.15c13.18-6.88,28.53-10.89,43.77-14.44
		c30.71-6.42,62.68-8.94,94.42-9.97c63.83-1.26,127.54,3.55,190.45,10.54c0.46,0,0.92,0.11,1.38,0.11
		c1.03-3.44,2.18-6.76,3.44-10.08c-1.26-0.11-2.41-0.34-3.67-0.46c-63.03-7.68-127.08-13.29-191.71-12.72
		c-32.32,0.11-64.86,1.6-97.4,7.33c-16.16,3.32-32.54,6.88-48.13,14.44c-7.79,3.67-15.58,8.02-22.46,14.32
		c-3.55,2.52-6.76,7.33-9.85,11.46c-1.83,2.18-2.29,3.9-3.21,5.73l-1.26,2.75L30.12,743c-0.46,1.03,0-0.11-1.03,2.52
		c-0.8,4.81-2.29,9.85-2.06,14.67c0.46,4.7,0.23,9.85,1.83,14.21c2.18,9.17,6.19,17.19,10.54,24.87
		c8.71,15.24,20.28,27.5,31.86,39.53c23.72,23.38,49.85,43.32,76.66,61.77c53.86,36.67,110.47,67.61,167.53,96.37
		c16.04,8.02,32.09,15.81,48.13,23.38c98.66,46.64,198.59,86.29,296.57,122.16c56.95,20.86,113.56,39.65,169.25,57.3
		c27.96,8.71,55.58,17.3,82.74,25.21c27.5,7.91,54.55,15.7,81.36,22.8c107.26,29.34,209.7,53.17,305.27,70.59
		c68.18,12.38,132.7,21.89,192.63,28.88c23.95,2.75,47.21,5.16,69.67,7.22c39.19,3.55,75.97,5.96,110.12,6.99
		c34.15,0.8,65.43,0.69,93.74-0.57c56.49-2.75,101.07-11,128.69-24.98c13.64-7.22,22.46-15.47,26.93-22.69
		c2.41-3.32,2.98-6.19,3.9-7.91c0.8-1.83,1.26-2.75,1.26-2.75v-0.23c0,0,0.23-1.03,0.57-3.09c0.11-2.06,1.26-5.04,1.03-9.05
		C1927.31,1282.05,1924.45,1270.13,1916.77,1256.72z"/>
	<g>
		<path style="fill:#FFFFFF;" d="M1656.5,1288.85c-17.7,0.01-37.44-0.7-59.24-2.12C1026.46,1249.75,128.4,868.07,92.77,780.78
			c-4.3-10.54-3.33-20.43,2.8-28.6c37.87-50.44,275.85-26.87,303.07-24l-3.46,11.71c-72.16-7.61-261.69-19.11-290.45,19.17
			c-3.73,4.98-4.16,10.5-1.35,17.38c29.72,72.8,897.38,460.16,1494.62,498.86c134.45,8.74,160.63-11.81,164.29-24.82
			c9.66-34.24-97.22-104.62-167.03-141.41l2.38-12.54c19.33,10.18,191.02,102.69,175.69,157.07
			C1766.66,1277.21,1728.29,1288.85,1656.5,1288.85z"/>
	</g>
</g>
</svg>
