<?xml version="1.0" encoding="utf-8"?>
<!-- Generator: Adobe Illustrator 25.2.1, SVG Export Plug-In . SVG Version: 6.00 Build 0)  -->
<svg version="1.1" id="Livello_1" xmlns="http://www.w3.org/2000/svg" xmlns:xlink="http://www.w3.org/1999/xlink" x="0px" y="0px"
	 viewBox="0 0 512 192" style="enable-background:new 0 0 512 192;" xml:space="preserve">
<g>
	<g>
		<path style="fill:#333333;" d="M187.31,64.79h12.24v25.92h27.28V64.79h12.23v64.89h-12.23v-27.37h-27.28v27.37h-12.24V64.79z"/>
		<path style="fill:#333333;" d="M263.71,127.51l-18.67-42.23h13.5l11.24,26.92h0.64l10.78-26.92h13.23l-27.82,63.99h-12.78
			L263.71,127.51z"/>
		<path style="fill:#333333;" d="M299.51,85.27h11.15v5.35h0.73c1.09-1.87,2.78-3.47,5.08-4.8c2.29-1.33,5.13-1.99,8.52-1.99
			c2.84,0,5.54,0.59,8.11,1.77c2.57,1.18,4.83,2.81,6.8,4.89c1.96,2.08,3.52,4.58,4.67,7.48c1.15,2.9,1.72,6.07,1.72,9.52
			c0,3.44-0.58,6.62-1.72,9.52s-2.7,5.39-4.67,7.48c-1.96,2.08-4.23,3.72-6.8,4.89c-2.57,1.18-5.27,1.77-8.11,1.77
			c-3.38,0-6.22-0.67-8.52-1.99c-2.3-1.33-3.99-2.93-5.08-4.8h-0.73l0.73,6.34v18.58h-11.87V85.27z M322.53,120.17
			c1.57,0,3.07-0.3,4.49-0.91c1.42-0.6,2.67-1.45,3.76-2.54s1.96-2.42,2.63-3.99c0.66-1.57,0.99-3.32,0.99-5.26
			s-0.33-3.69-0.99-5.26c-0.67-1.57-1.54-2.9-2.63-3.99s-2.34-1.93-3.76-2.54c-1.42-0.6-2.92-0.91-4.49-0.91
			c-1.57,0-3.07,0.29-4.49,0.86c-1.42,0.57-2.67,1.4-3.76,2.49c-1.09,1.09-1.97,2.42-2.63,3.99c-0.66,1.57-1,3.35-1,5.35
			c0,1.99,0.33,3.78,1,5.35c0.66,1.57,1.54,2.9,2.63,3.99c1.09,1.09,2.34,1.92,3.76,2.49C319.46,119.88,320.95,120.17,322.53,120.17
			z"/>
		<path style="fill:#333333;" d="M395.94,118.99c-2.06,3.63-4.82,6.56-8.29,8.79c-3.47,2.23-7.72,3.35-12.73,3.35
			c-3.38,0-6.51-0.59-9.38-1.77c-2.87-1.18-5.36-2.82-7.48-4.94c-2.11-2.11-3.76-4.61-4.94-7.48c-1.18-2.87-1.77-6.03-1.77-9.47
			c0-3.2,0.57-6.24,1.72-9.11c1.15-2.87,2.75-5.38,4.8-7.52c2.05-2.14,4.49-3.85,7.3-5.12c2.81-1.27,5.9-1.9,9.29-1.9
			c3.56,0,6.74,0.59,9.52,1.77c2.78,1.18,5.11,2.81,6.98,4.89c1.87,2.08,3.29,4.55,4.26,7.39c0.97,2.84,1.45,5.92,1.45,9.24
			c0,0.42,0,0.79,0,1.09c-0.06,0.36-0.09,0.69-0.09,1c-0.06,0.3-0.09,0.63-0.09,1h-33.44c0.24,1.81,0.74,3.37,1.5,4.67
			c0.75,1.3,1.69,2.39,2.81,3.26c1.12,0.88,2.34,1.51,3.67,1.9c1.33,0.39,2.69,0.59,4.08,0.59c2.72,0,4.97-0.62,6.75-1.86
			c1.78-1.24,3.19-2.79,4.21-4.67L395.94,118.99z M385.15,101.77c-0.06-0.79-0.32-1.66-0.77-2.63c-0.45-0.97-1.12-1.87-1.99-2.72
			c-0.88-0.85-1.96-1.54-3.26-2.08c-1.3-0.54-2.85-0.82-4.67-0.82c-2.54,0-4.77,0.73-6.71,2.18c-1.93,1.45-3.29,3.48-4.08,6.07
			H385.15z"/>
		<path style="fill:#333333;" d="M404.27,85.27h11.15v6.16h0.72c0.54-1.09,1.27-2.08,2.18-2.99c0.91-0.91,1.92-1.7,3.04-2.37
			c1.12-0.67,2.33-1.22,3.63-1.63c1.3-0.41,2.58-0.62,3.85-0.62c1.57,0,2.91,0.17,4.03,0.5c1.12,0.34,2.07,0.77,2.85,1.31
			l-3.17,10.6c-0.72-0.36-1.53-0.65-2.4-0.86c-0.88-0.21-1.95-0.32-3.22-0.32c-1.63,0-3.11,0.32-4.44,0.96
			c-1.33,0.64-2.46,1.53-3.4,2.69c-0.94,1.15-1.66,2.5-2.17,4.05c-0.51,1.55-0.77,3.23-0.77,5.06v21.87h-11.87V85.27z"/>
		<path style="fill:#333333;" d="M466.36,131.13c-3.81,0-7.27-0.62-10.38-1.86c-3.11-1.24-5.75-3.04-7.93-5.39
			c-2.18-2.36-3.87-5.21-5.08-8.56c-1.21-3.35-1.81-7.17-1.81-11.47V64.79h12.24v39.79c0,2.17,0.27,4.17,0.82,5.98
			c0.54,1.81,1.36,3.38,2.45,4.71c1.09,1.33,2.45,2.37,4.08,3.13c1.63,0.76,3.5,1.13,5.62,1.13c2.18,0,4.08-0.38,5.71-1.13
			c1.63-0.75,2.99-1.8,4.08-3.13c1.09-1.33,1.9-2.9,2.45-4.71c0.54-1.81,0.82-3.81,0.82-5.98V64.79h12.24v39.06
			c0,4.05-0.59,7.75-1.77,11.1c-1.18,3.35-2.87,6.22-5.08,8.61c-2.21,2.39-4.86,4.25-7.98,5.57
			C473.71,130.47,470.22,131.13,466.36,131.13z"/>
	</g>
</g>
<g>
	<g>
		<polygon style="fill:#D89CF6;" points="21.12,55.21 91.88,96.26 91.88,14.35 		"/>
		<path style="fill:#F0E3FF;" d="M91.88,97.4c-0.2,0-0.39-0.05-0.57-0.15L20.55,56.19c-0.35-0.2-0.57-0.58-0.57-0.99
			c0-0.41,0.22-0.78,0.57-0.99l70.76-40.85c0.35-0.2,0.79-0.2,1.14,0c0.35,0.2,0.57,0.58,0.57,0.99v81.91
			c0,0.41-0.22,0.78-0.57,0.99C92.28,97.35,92.08,97.4,91.88,97.4z M23.4,55.21l67.35,39.08V16.33L23.4,55.21z"/>
	</g>
	<g>
		<polygon style="fill:#D89CF6;" points="91.88,96.26 162.64,55.21 91.88,14.35 		"/>
		<path style="fill:#F0E3FF;" d="M91.88,97.4c-0.2,0-0.39-0.05-0.57-0.15c-0.35-0.2-0.57-0.58-0.57-0.99V14.35
			c0-0.41,0.22-0.78,0.57-0.99c0.35-0.2,0.79-0.2,1.14,0l70.76,40.85c0.35,0.2,0.57,0.58,0.57,0.99c0,0.41-0.22,0.78-0.57,0.99
			L92.45,97.25C92.28,97.35,92.08,97.4,91.88,97.4z M93.02,16.33v77.96l67.35-39.08L93.02,16.33z"/>
	</g>
	<g>
		<polygon style="fill:#FBD46D;" points="21.12,55.21 21.12,136.91 91.88,96.26 		"/>
		<path style="fill:#FFF3CD;" d="M21.12,138.05c-0.2,0-0.39-0.05-0.57-0.15c-0.35-0.2-0.57-0.58-0.57-0.99V55.21
			c0-0.41,0.22-0.78,0.57-0.99c0.35-0.2,0.79-0.2,1.14,0l70.76,41.06c0.35,0.2,0.57,0.58,0.57,0.99c0,0.41-0.22,0.78-0.57,0.99
			L21.69,137.9C21.52,138,21.32,138.05,21.12,138.05z M22.26,57.18v77.76L89.6,96.26L22.26,57.18z"/>
	</g>
	<g>
		<polygon style="fill:#32E0C4;" points="91.88,96.26 162.64,136.91 162.64,55.21 		"/>
		<path style="fill:#D4F3EF;" d="M162.64,138.05c-0.2,0-0.39-0.05-0.57-0.15L91.32,97.25c-0.35-0.2-0.57-0.58-0.57-0.99
			c0-0.41,0.22-0.78,0.57-0.99l70.76-41.06c0.35-0.2,0.79-0.21,1.14,0c0.35,0.2,0.57,0.58,0.57,0.99v81.71
			c0,0.41-0.22,0.78-0.57,0.99C163.04,138,162.84,138.05,162.64,138.05z M94.16,96.26l67.34,38.68V57.18L94.16,96.26z"/>
	</g>
	<g>
		<polygon style="fill:#FBD46D;" points="21.12,136.91 91.88,177.76 91.88,96.26 		"/>
		<path style="fill:#FFF3CD;" d="M91.88,178.9c-0.2,0-0.39-0.05-0.57-0.15L20.55,137.9c-0.35-0.2-0.57-0.58-0.57-0.99
			c0-0.41,0.22-0.78,0.57-0.99l70.76-40.65c0.35-0.2,0.79-0.2,1.14,0c0.35,0.2,0.57,0.58,0.57,0.99v81.5c0,0.41-0.22,0.78-0.57,0.99
			C92.28,178.85,92.08,178.9,91.88,178.9z M23.41,136.91l67.34,38.88V98.23L23.41,136.91z"/>
	</g>
	<g>
		<polygon style="fill:#32E0C4;" points="91.88,177.76 91.88,96.26 162.64,136.91 		"/>
		<path style="fill:#D4F3EF;" d="M91.88,178.9c-0.2,0-0.39-0.05-0.57-0.15c-0.35-0.2-0.57-0.58-0.57-0.99v-81.5
			c0-0.41,0.22-0.78,0.57-0.99c0.35-0.2,0.79-0.2,1.14,0l70.76,40.65c0.35,0.2,0.57,0.58,0.57,0.99c0,0.41-0.22,0.78-0.57,0.99
			l-70.76,40.85C92.28,178.85,92.08,178.9,91.88,178.9z M93.02,98.23v77.56l67.34-38.88L93.02,98.23z"/>
	</g>
	<g>
		<polygon style="fill:#FE346E;" points="68.78,109.52 68.78,82.84 43.94,68.38 43.94,123.74 91.88,151.42 91.88,122.86 		"/>
		<path style="fill:#FFF3CD;" d="M91.88,152.56c-0.2,0-0.39-0.05-0.57-0.15l-47.94-27.68c-0.35-0.2-0.57-0.58-0.57-0.99V68.38
			c0-0.41,0.22-0.78,0.57-0.99s0.79-0.2,1.14,0l24.84,14.46c0.35,0.2,0.57,0.58,0.57,0.98v26.02l22.54,13.01
			c0.35,0.2,0.57,0.58,0.57,0.99v28.56c0,0.41-0.22,0.78-0.57,0.99C92.28,152.51,92.08,152.56,91.88,152.56z M45.08,123.08
			l45.66,26.36v-25.93l-22.54-13.01c-0.35-0.2-0.57-0.58-0.57-0.99V83.5L45.08,70.36V123.08z"/>
	</g>
	<g>
		<polygon style="fill:#0D7377;" points="114.99,82.98 114.99,109.52 91.88,122.86 91.88,151.42 139.82,123.74 139.82,68.38 		"/>
		<path style="fill:#D4F3EF;" d="M91.88,152.56c-0.2,0-0.39-0.05-0.57-0.15c-0.35-0.2-0.57-0.58-0.57-0.99v-28.56
			c0-0.41,0.22-0.78,0.57-0.99l22.54-13.01V82.98c0-0.4,0.21-0.78,0.56-0.98l24.84-14.6c0.35-0.21,0.79-0.21,1.14-0.01
			c0.35,0.2,0.57,0.58,0.57,0.99v55.36c0,0.41-0.22,0.78-0.57,0.99L92.45,152.4C92.28,152.51,92.08,152.56,91.88,152.56z
			 M93.02,123.52v25.93l45.66-26.36V70.37l-22.56,13.26v25.89c0,0.41-0.22,0.78-0.57,0.99L93.02,123.52z M114.99,109.52
			L114.99,109.52L114.99,109.52z"/>
	</g>
</g>
</svg>
